<svg id="Graphic_Elements" data-name="Graphic Elements" xmlns="http://www.w3.org/2000/svg" viewBox="0 0 1200 800"><path d="M1027.36,193.68c3.2.46-.75,2.46-1.42,3.56-2.38,3.9-5.12,9.95-8.54,12.81.45-5.48,6.67-11.35,10-16.37Z" style="fill-rule:evenodd"/><path d="M1037.32,195.82c.1,3.62-3.42,7.22-5.69,10.67s-4.44,8-7.83,10c3.93-7.44,8.82-13.94,13.51-20.63Z" style="fill-rule:evenodd"/><path d="M1020.24,198c2.47.64-.85,3.92-2.13,5.69s-3.37,4.44-5,5c1.37-4.56,5.61-6.26,7.12-10.67Z" style="fill-rule:evenodd"/><path d="M850.94,358.71v2.85H848.1c.85-1.06.62-3.18,2.85-2.85Z" style="fill-rule:evenodd"/><path d="M247,374.36c-4.23,2.62-9.7,1.42-14.22,1.42-5,0-10,0-14.94,0-38,.4-81.71,4.25-116.66,12.1,6.56-3.16,14.09-4.08,22-5.7a335,335,0,0,1,50.5-6.4c18.43-.83,37.34.14,54.78-1.42A149.62,149.62,0,0,1,247,374.36Z" style="fill-rule:evenodd"/><path d="M436.25,388.59c47.49,8,98.13,13.32,143.69,24.18,11.48,2.74,22.6,4.74,34.14,7.83,3.17.84,7.73.47,9.25,4.27-10.2-3.32-21.33-4.76-32-7.12-6.25-1.38-12.12-3.8-18.5-5-37.43-6.92-79.33-14.21-118.08-19.91-3.18-.48-6.61-.78-9.95-1.43-2.69-.53-6.81,0-8.54-2.85Z" style="fill-rule:evenodd"/><path d="M873,421.31h1.42v1.42H873v-1.41Z" style="fill-rule:evenodd"/><path d="M661,470.39c2.18-.51,2.6.73,4.27.71,0,1.08-5.27,1.55-4.27-.72Z" style="fill-rule:evenodd"/><path d="M666.72,474.66c-2.88-.77-3.9.28-7.82,0,1.47-.56,7.23-3.17,7.82,0Z" style="fill-rule:evenodd"/><path d="M685.93,510.22c.52,1.94-1.41,1.43-1.42,2.84-1.74-.45-.39-3.61,1.42-2.85Z" style="fill-rule:evenodd"/><path d="M689.49,511.63c.21,1.88-1.49,1.84-2.85,2.14-.21-1.87,1-2.33,2.85-2.14Z" style="fill-rule:evenodd"/><path d="M664.59,526.58c.71-1.79,3.14.57,2.84,2.13-1.45-.21-1.4-1.93-2.85-2.13Z" style="fill-rule:evenodd"/><path d="M603.41,528.71c5.08,2.27,9.67,5,14.94,7.12-2.1.7-5.89-.93-8.54-2.14-2.49-1.15-6.4-2.06-6.4-5Z" style="fill-rule:evenodd"/><path d="M551.5,530.13c-2.42,2.58-7.68,2.44-12.1,2.85-4.86.44-9.9-.08-13.51,1.42,14.86,2.21,31.27,5.41,44.1,7.11,3.78.5,8.2,0,10.67,2.85-25.75-1.66-53-12.49-80.38-5.69,18,2.47,39,4.25,57.62,6.4,3.54.41,7.79-.89,10,2.13-32.25-2.06-69.06-9.7-103.14-3.55,26.59,1.29,60.87,1.18,87.5,5.69-27.15-1-53.71-2.6-80.38-3.56-17.61-.64-32.66.61-48.37,2.13,5.36-3,13-3.31,19.2-4.26,9.49-1.47,20.18-1.52,31.3-2.85,11.75-1.4,28.16-2.85,37.7-7.82,13.08,1.43,26.47-4.71,39.79-2.86Z" style="fill-rule:evenodd"/><path d="M592,530.13c8.7,2,15.47,5.87,24.18,7.83-3.94,1.55-9.63-1.26-12.8-2.85-4.46-1-9.28-1.62-11.37-5Z" style="fill-rule:evenodd"/><path d="M244.19,530.85c-7.52,3.08-16.73,4.67-24.19,6.4-7.9,1.83-16.29,2.7-24.18,4.27-8.07,1.61-16.17,2.5-24.18,4.27-9.95,2.19-24.42,4.62-36.28,8.53-14.65.25-22.32,3.2-36.28,4.27,25.89-6.43,49-9,73.27-13.51,10.49-2,21.63-4.25,32.72-6.41,13-2.55,24.4-6.48,39.12-7.84Z" style="fill-rule:evenodd"/><path d="M564.29,533.7c0-.69.87-.55,1.42-.71,10,1.28,22.19,3.82,33.43,6.4,1.52.35,4.55-.23,5,2.14-13.36-2.65-28.68-5.12-39.85-7.82Z" style="fill-rule:evenodd"/><path d="M550.06,535.12c13.79.15,29.55,4.31,42,6.4-13,1-28.74-4.27-42-6.4Z" style="fill-rule:evenodd"/><path d="M589.19,535.12c2.94-1,8,1.9,11.38,2.84-2.93,1-8.47-1.49-11.38-2.85Z" style="fill-rule:evenodd"/><path d="M422,548.63c-24.37,3.58-48.75,3.73-73.26,7.82-1.29-2.72,3.14-1.33,3.55-1.42,16.35-3.47,37.35-4.58,56.2-7.11,2.42-.33,5.56-.65,7.82-.71,1.61-.06,5.29-.48,5.71,1.41Z" style="fill-rule:evenodd"/><path d="M425.58,550.76c-.66,2.67-5.71.93-8.54,1.42,2.12-1.21,5.14-1.49,8.54-1.41Z" style="fill-rule:evenodd"/><path d="M336.67,557.17c.22-1,1.78-.59,2.84-.71,1.18-1.19,4.18-.57,6.41-.71,3.47.22-.69,1.12-2.14.71a29.2,29.2,0,0,1-7.12.71Z" style="fill-rule:evenodd"/><path d="M336,557.17c-13.6,3.25-32.26,2.27-47.66,5,15.61-3.82,30.48-4.35,47.67-5Z" style="fill-rule:evenodd"/><path d="M410.65,558.58h-7.11c-1.17-.11,7.44-3,7.12,0Z" style="fill-rule:evenodd"/><path d="M402.11,557.88c-5.38,3.16-14.52,2.56-22.76,2.85,1.79-3.51,7.37-1.88,11.38-2.14,3.85-.24,7.84-1.3,11.39-.71Z" style="fill-rule:evenodd"/><path d="M354.45,561.44c-.12-1.55,2.52-.33,3.55-.71.13,1.54-2.51.32-3.55.71Z" style="fill-rule:evenodd"/><path d="M449.06,561.44c-17.1,3.37-34.51,2.81-53.35,3.55-1-.39-3.68.83-3.55-.71h4.26c15.59-.21,36.14-3.7,52.64-2.83Z" style="fill-rule:evenodd"/><path d="M215,572.11c4.53-3.6,10.53-1.6,16.36-2.13,5.47-.5,11.24-1.71,17.08-2.14,10.43-.77,21.07-1.56,32.72-2.13,4.37-.22,9.34-.76,13.51-.71a10.46,10.46,0,0,1,2.85,0c.75.27.5,1.31,1.42,1.42,6.17.75,14.29-1.1,19.2-1.42,9.1-.59,20.83-.85,28.46-.71-13.06,2.61-28.9,2.31-44.1,3.55-22.71,1.86-47.36-.78-67.58,2.14-5.63.83-12.26,3.1-19.94,2.15Z" style="fill-rule:evenodd"/><path d="M389.3,565c-7.29.14-15.37,2.53-23.47,1.42-5.29-.72,4.88-1.23,7.82-1.42a107.82,107.82,0,0,1,15.67,0Z" style="fill-rule:evenodd"/><path d="M347.34,567.12c.69-.54,11.46-2.49,15.65-.71-5.84-.38-9.65,1.27-15.64.72Z" style="fill-rule:evenodd"/><path d="M179.47,567.84c.3,2.44-2.13,2.14-2.85,3.56-5.72-2.94-16.37,2.92-18.49-2.85,6.62-.28,14.3-2.59,21.34-.7Z" style="fill-rule:evenodd"/><path d="M329.56,567.84c1.69-1.64,6.39-.25,9.25-.71-1.68,1.64-6.38.26-9.24.72Z" style="fill-rule:evenodd"/><path d="M151,569.26c-2.47,2.8-7.55,1.18-11.38,1.42s-11.56.68-16.36-.71c-1.27.2-1.46-.67-.71-.71,7.13-.72,19.71-1.42,28.45,0Z" style="fill-rule:evenodd"/><path d="M297.54,569.26c-3.58,2.75-10.23,2.56-16.36,2.84-10.48.49-23-.37-33.43,0,6.45-2.87,15.4-1.05,23.47-1.42,10.15-.47,19.61-1.47,26.34-1.44Z" style="fill-rule:evenodd"/><path d="M286.17,574.24h-7.11c-.1-1.92,7.31-2.55,7.1,0Z" style="fill-rule:evenodd"/><path d="M290.44,573.53c3.33-1.19,11.6-1.19,14.94,0-5.22-.31-11.81.47-14.95,0Z" style="fill-rule:evenodd"/><path d="M264.12,574.24c1.92-1.64,6.86-.25,10-.71-1.93,1.65-6.86.25-10,.72Z" style="fill-rule:evenodd"/><path d="M428.43,567.84c-.76-1.61-4.47-.27-6.4-.71,2.16-1.87,7.33-.72,10-2.13,2.28-.63,1.47,1.84,2.84,2.13,64.46-8.34,129.16-16.43,190.63-27.74-5.75-6.11-14.28-9.44-21.34-14.23,9.15.82,15.42,10.66,24.9,13.52-2.17-3.83-6.09-5-10-7.83-2.81-2-6.36-7.11-10-7.82-2.82-.56-4.82,1-7.83,1.42-14.86,2.24-33.66,3.51-48.37,6.4,1.77-3.28,7.09-3.65,10.67-4.27,4.1-.7,8.52-1.59,12.8-2.13,14.69-1.86,32.76-4.52,47.66-7.11,2.57-.45,6.44.73,7.83-2.14,3.64,1.34,8.29-.74,13.51,0,1.85-20.14-6-36.63-5.69-57.61-1,2.23-7.65-.35-10.67,2.84-37.68,5.77-75.65,13.09-113.81,19.92-37.79,6.76-75.22,15.51-113.1,21.34,3.75-3.1,11-3.25,17.07-4.27,37.09-6.19,80.24-16.55,120.93-22.76-10.66-.91-20.84,3-31.3,5s-20.9,3-31.3,5c-41.05,7.86-83.6,15.33-125.9,23.47-21,4-41.71,7.64-61.89,12.8,35.82-4.5,75.31-15.26,111.68-19.2-4.85,2.26-10.41,2.55-15.65,3.55-14.26,2.73-30.46,5.52-46.23,8.54-29.73,5.69-58.73,12.5-91,17.07,5.1-3.5,12.52-3.68,19.2-5s13.45-2.79,19.92-3.56c-16,0-31.72,4.05-46.95,7.12-44.93,9.06-90.49,18.89-138.7,25.6,2.6-2.75,7.17-3,10.66-3.55,64.3-10.67,127-24.73,192.07-36.28,15.18-2.69,30.34-6.66,45.52-9.25s30.35-4.87,45.52-7.82c30.48-5.93,61.13-11.92,91.76-17.07-16.51-4.36-33.7-6.87-50.5-10-41.82-7.7-85.15-16-127.33-23.48-14.44-2.55-28.31-5.87-42-8.53-22.86-4.46-49.19-7.68-74-12.8-6.32-1.31-15.49-2.78-24.19-4.27-29.61-5.09-64.74-10.11-95.31-16.36-5.58-1.14-12.46-1.8-17.08-5.69,4.89-8.16,19-7.08,24.9-14.23,3.84,1.71,7.36-1.14,10.67-2.13,4-1.2,8-1.22,12.09-2.14,7.38-1.63,14.9-4.74,22.77-5.69,11.83-1.43,22.39-3.52,34.14-4.27,56.16-3.58,119.05-2.39,177.83,2.14,28.19,2.17,54,3.7,82.51,7.82,11.24,1.63,22.4,3.69,33.43,5,29,3.39,57.58,6.56,83.94,11.38,7.81,1.43,17.08,5.84,24.18,3.56,2,.4,2.3,2.45,4.27,2.85,41.67,5.72,74.58,17.31,108.12,32,3.88-2.8,7.63-.63,11.38-1.43,2.42-.51,4.68-3,7.11-3.55,3.4-.78,8.31-1,12.09-1.43,9.49-.95,22.33-1.7,32.72-4.26,1.52-.38,2.79-1.66,4.27-2.14,1.7-.55,4.13-.19,5.69-.71,16.59-5.56,33.42-17.17,44.11-30.59,1.34-1.68,2.87-3.36,4.27-5,8.48-9.78,17.72-17.9,29.16-26.31,5.5-4.05,10.86-7.8,16.36-12.1,1.8-1.4,4.07-2.24,5.69-3.55,6.87-5.59,11.77-13.33,19.92-17.07,1.36-2.91,3.77-4.76,5-7.83,5.16-1.71,6.26-7.49,10.67-10,.6-4.3,3.2-6.89,3.55-10.67.7-7.43-2.31-15-2.13-22.76.34-14.61,7.39-32.77,14.94-42.68,3.51-4.61,12.6-12.57,18.49-17.78a57.65,57.65,0,0,1,8.54-6.4c.72-.47.86-1.74,1.42-2.14.39-.27,1.82.36,2.13,0,1.85-2.09,3.49-2.93,7.12-5a194.54,194.54,0,0,1,22.76-11.38q2.64-1.05,5-2.13c12.56-5.79,44-5.81,59.75-2.13,4.19,1,7.84,1,10.67,2.84,3.59,2.34,8.8,4.05,12.8,7.11,1.09.84,1.38,3.43,3.56,2.85,1.93,3.63-2.6,2.47-.71,6.4,2.78,1.64,3.28-.84,5-2.13,8.53,5.13,16.36,14.19,22.76,23.47,3.94,5.71,5.72,8.31,8.54,16.36,4.1,11.74,8.67,27.83,6.4,46.95-.7,5.85-3.11,11.8-5,17.07s-4.6,9.78-6.4,14.94c-3.81,1.41-5.12,5.32-7.12,8.53-2.67,1.84-5.33,3.68-6.4,7.12-4,0-6.09,3.8-9.25,5.69-8.22,4.89-20.81,8.3-32,7.82-13.59-.58-26.49-7.36-39.12-8.53-8.24,8.14-.09,28-8.54,34.14-2.2,1.6-4.14.47-7.11.71-2.63.21-5.25,1.28-9.25.71-5.79-5.11-8-13.84-16.36-16.36-8.07,3.65-14.69,8.83-21.34,14.22-1.32,1.08-2.16,2.43-3.55,3.56-.38.31-1.82-.36-2.14,0-.92,1.05-3.36,5.27-6.4,5-3.14,4-5.67,8.55-10.67,10.67.49,3.22-3.22,4.31-5,6.4s-3,4.86-5,7.11-4,3.93-5.69,6.41c-6,8.62-13.58,21.64-27.74,22.76-12.72,1-26.38-7.79-37,0-2.6,1.12,1.65,1.06.71,2.84-11.81,5-16.31,17.36-22,28.46,2.15,2.11,6.66,1.87,9.25,3.55,10.88-4.24,20.51-12,30.58-19.2a120.84,120.84,0,0,1,33.44-16.36c10.56-3.34,24.19-4.39,34.85,0,3.46,1.42,6.56,4.77,10.67,6.4,2.62,1,6.11.89,9.25,2.13,1.79.71,3.06,2.73,5,3.56,2.52,1.09,6.49,1.58,9.95,2.84,5.79,2.12,12.78,4.66,19.21,6.41,5.94,1.61,11.64,3,19.21,2.13,2-.24,3.55-1.62,5.69-2.13,14.07-3.39,29-5,46.23-7.12,15.34-1.91,33.48-3.41,52.64-2.13,2,.13,4.33,1.27,6.4,1.42,1.74.13,3.37-.89,5-.71,17.35,2,30.22,10.09,42.68,21.34,1.39,4.62,5.71,6.79,6.4,12.8,1,8.77,1.67,26.92,0,32.72-.8,2.81-4.92,7.57-7.82,11.38-5.5,7.23-12.27,13.35-19.21,19.21-3.68,3.12-7.85,5.3-10.66,7.83-4.17,3.73-9.88,12.13-10,16.36-.11,5.34,4.41,9.51,7.82,12.8,5.25,5.06,12.3,6.66,10.67,16.36-1.78,10.59-18.76,17.19-30.58,10.67-1.82-1-4.1-3.34-6.41-5a126.23,126.23,0,0,1-20.63-19.21c-1.63,1.6-3.14-.58-5-.71-3.41-.24-6.59,1.07-10.66,1.43-7.26.63-15.88,1.33-22.77,1.42-2.59,0-5.55-1-7.82-.71s-4.17,1.93-6.4,2.13c-22.74,2-43.55-5.82-64.73-9.25-14-4.51-25.39-8.29-37-14.94-15.05-8.61-28.16-19.86-41.26-30.58-2.54-4.59-6.29-9-10-14.23-3.25-4.67-9.37-10.23-19.2-9.24-4.67.46-9.11,3.71-13.52,6.4-8,4.88-16,9-24.18,14.22-3.75,2.41-7.51,6.08-11.38,7.83C758,555.92,722.93,536,695.16,529.42c-19.84,6.28-41.55,7.6-64.73,12.1-30.37,5.89-64,10.78-98.87,15.64-17.11,2.39-33.3,5.51-51.92,7.83-18.09,2.25-38.23,4.85-58.33,6.4-7.09.55-14.11.11-21.34.71-10.13.85-20.27,2.38-30.59,2.85-3.64.16-7.73-.44-11.38,0-12,1.43-29.57,1-43.39,2.13-7.31.58-15.47,1-24.19,1.42-24.64,1.15-51.9-1.59-75.4.71-4.6.45-12.41,5-17.78,0-9.26,3.46-25.25,2.34-36.28,0-11.84,2.07-26.69-1.46-40.54-1.42-1.93,0-3.76.88-5.69.71-4-.35-8-2.26-12.09-2.84-13.1-1.87-27.61-2-39.84-4.27-4.48-.83-9.33-2.15-12.8-5,.45-5,6.91-5,10.67-5.69,10.78-2.07,25.64-4.31,39.12-6.41-1.19,4-5.83,1.68-8.53,2.14-12.08,2-25.43,6-37.7,7.82,4.2,2.65,10.85-1.65,15.65-.71-2.21,1.74-2.72.75-5.69,1.43,4.85,2.87,13.43,1.13,17.07,3.55,3.8.76-.09-1.76,2.84-1.42,9.78,2.86,21.8,2,35.57,2.13-1.09,3.32-6.14-.17-7.11,1.43,14.25,3.72,32,1.65,47.65,2.84,4.68.36,9.25,1.83,13.52,2.13,26.52,1.92,52.19,0,71.84,0-13.75-1.65-30.58-.23-45.52-.71,3.69-3.17,9.05-.7,13.51-.71,16.51,0,34.49.13,49.08-.71-.08,1.57-3,.31-4.26.71,48.9,2.58,92.19-1.34,139.41-4.26-4.08-1.46-12.54-1-18.49-.72-15.61.82-36.16,2.75-54.06,3.56-4.81.22-9.13,1.46-13.52,0,3.09,1,5-2.11,11.38-.71,3-1,8.54-.35,12.1-.71,2.27-.23,1.1-2.22,2.84,0,1.46-3,5-.53,7.11-.71,21.3-1.75,49.89-2.58,74-4.27,4.16-1-.57,2.41,2.85,2.14,2.93.56,3.83-1.16,6.93-.65Zm189.93-47c-1.77.84-4.19,1-6.41,1.42,2.18,2.84,5.68,5.69,9.25,8.54,7,5.61,11.34,9.19,22.76,5.69-1.32-4.32-6.56-6.64-10-9.25s-7.48-7.83-12.8-5.69c6.15,4.29,15.16,9.5,18.5,14.23-7.62-4.5-14.29-9.94-21.35-15Zm17.06,5c4.07,3.19,7,8.53,12.8,10-.4-3.49-4.42-5-7.12-7.11-4.2-3.36-8.85-9.18-13.51-8.54,1.44,3.46,5.14,3.63,7.82,5.71Zm374.86-334.3c1.62.12,4.15-2.41,2.85-2.85-.08,1.83-2.78,1-2.86,2.85Zm-2.83,5.69c2.21-3.25,6.46-4.45,8.54-7.83-3,2-8.86,4.88-8.54,7.83Zm7.1-3.56c.72-1.89,3.29-1.93,4.27-3.56-1.55.48-7.12,3.3-4.27,3.56Zm-14.92,17.07c2,.11,2-1.74,2.13-3.55,4-2.62,9.53-7.53,10.67-10.67-4.63,4.39-11.11,6.93-12.81,14.22ZM1035.18,193c-6.9,4.72-10.41,16.62-16.36,19.92,3.94-7.44,10-12.74,12.8-21.34-14.77-5-18.09,10.42-27.74,14.94-.11,2.26-1.61,3.12-1.42,5.69,2.68.54.49-3.78,3.56-2.85.39,1-.83,3.68.71,3.56a2,2,0,0,1,1.42-2.14c-.77,3.36,2.45,2,2.85.71-.6,4.44,5.31,2.16,7.11,5.69,7.1-6.6,12-15.5,17-24.18Zm-9.25,25.61c4.62-8.18,10.57-15,14.22-24.19-5.51-.05-7,4.51-9.25,7.83-3.56,5.28-7.57,10.19-10,15.65,1.59,1.73,3.22,3.42,6.41,3.55.67-2.89,4.55-6.32,3.55-8.53-1.23,1.87-3.4,6.51-5,5.69ZM961.2,198a16.52,16.52,0,0,0,6.4-5c-3.93-.14-5.27,2.32-6.4,5Zm83.22-.71c-1.41,0-.9-1.94-2.85-1.43-.29,1.2-3.35,3.2-1.42,4.27.92-1.22,1.47-2.79,3.56-2.84,0,.39.58.8.72,0Zm-47.65,4.27c.5-1.88,3.24-1.51,3.56-3.56-1.83.12-5,2.57-3.55,3.56Zm5.69,0c-.27-1.76,4.44-2.11,2.13-3.56.1,1.58-4.63,1.92-2.13,3.56Zm36.27,9.95c.44.08,6.49-10,6.41-12.8-2.29,4.11-5,7.77-6.41,12.8Zm-89.62-8.53c1.26-1.35,3-2.21,4.27-3.56-1.48.69-6,2-4.27,3.56Zm99.58.71c-.34-2.24,2.18-1.61,1.42-4.27H1048c.83,2.41-.49,3,.72,4.27Zm-7.82-2.13c-1.17,3.11-5.34,7-4.27,9.95.81-3.13,5.93-9,4.27-9.95ZM913.55,225.7c6-1.63,9-6.14,13.52-9.25-4.54,3.05-10.26,4.92-13.51,9.25Zm32-23.47c-4.16,1.05-7,3.47-10,5.69a31,31,0,0,0-8.54,5c-1.51,1.24-5.57,3.82-2.84,4.27,6.17-5.92,14.92-9.26,21.34-14.93Zm48.36,4.26c0-1.49,3.88-2.67,2.14-3.55C995.58,204,991.71,205.14,993.92,206.49Zm1.44,0c2.19.93,4-2,2.13-2.84.63,2.28-2.36,1-2.13,2.84Zm-56.91,5.69c2,.18,5.8-4.07,4.27-2.84-1.53.85-3.89.87-4.27,2.84Zm59.74-1.42c0-.43.11-.84.71-.71-.08-.87-.21-1.68-1.42-1.42.09.84-.13,2,.7,2.13Zm47.67,2.85c.14-.91,2.06-3.49.71-3.56-.23.84-2.87,2.69-.72,3.56Zm13.5,2.84c0-1.27,1.92-4.14,0-5C1059.36,212.74,1057.46,215.61,1059.36,216.45ZM930.61,215c2.09.6,4.62-1.93,2.85-2.85-.08,1.83-2.78,1-2.86,2.85Zm133,.71C1062.41,220.44,1065.45,210,1063.63,215.74Zm-36.27,7.83c2.52-.39,3.66.6,4.27,2.13-.17,1-1.17,1.2-1.42,2.13,2.86.7,3.61,3.5,5.69,5-.88-2.2-2.27-3.92,0-5.69-1.66.22-3.07,1.52-3.56-.71,3.62-.87,6.11-9.39,5.69-11.38-1.38,3.12-2.37,6.64-5,8.54-.22-3.33,3.66-6.27,2.14-8.54-1.63,2.4-2.17,5.89-5,7.11-.09-2.72,3.55-5.41,2.13-7.11-1.21,3.28-3.84,5.17-5,8.54Zm40.54-2.14c.17-2.17,2.17-6.13-2.13-6.4-1.38,1-1.06,3.68-2.14,5,2.72.58.84-3.43,3.56-2.85-.27,8.27-5.21,15.65-5,22.05,1.59-4.18,5.27-12.25,5.71-17.78Zm1.42-2.13c.32,1.65-2.82,5.31,0,5C1068.4,222.07,1071.44,220.33,1069.32,219.3Zm-7.82,36.27c4-2.4,4.06-8.16,5.69-12.8.73-2.08,2.12-4.36,2.85-6.4.78-2.2.26-5.59,2.84-6.4-2.6,11.88-7.73,21.71-8.53,32,3.34-5.6,5.62-16.46,7.82-24.9,2.06-7.9,5.13-12.87-1.42-16.36-.15,4.37-4.55,8.24-2.85,12.09a14.37,14.37,0,0,1,4.27-8.53c-2.83,11.16-6.74,21.24-10.67,31.29Zm-128-32c.9,0,1,.91,2.13.71C936.7,222.53,933.18,222.19,933.47,223.57Zm-9.26,10c-13.55,5.89-17.12,21.76-22.05,36.27,1.3.94,1.2,1.33,1.42,2.85,1.06,7.45.26,13.06,2.13,17.78s6.19,8,9.25,12.09c.46,1.55-2,2.27.71,2.14,5.89,3.51,11,3.7,14.94,8.53,4-1.06,6.85,2.83,10.67,3.56,3.51.67,8.64-.65,13.51,0,15.34,2.05,34.89.39,47-6.4h5c7.38-5,14.81-9.85,22-14.94.37-2.23,2.31-3.49,3.56-5,.6-.73.63-1.92,1.42-2.85.54-.63,2.46-.89,2.85-1.42,1.93-2.68,2-6.58,5-8.53.65-9.2,3.87-18.79,1.42-25.61-2.93-8.15-10.55-17.88-17.07-22.76-3.19-2.39-5.26-3.18-9.25-5-4.32-1.95-8-4-12.8-5-12.67-2.5-32.71-3.68-42,0A99.38,99.38,0,0,0,923.5,230c-.57,2,1,1.84.72,3.56Zm133-13.52c-1.14,8,2.26-5.78.71-1.42-.21.54-.56.36-.72,1.42Zm-21.33,10c2.83-2.16,5.22-8.52,5-11.38-1.59,3.87-3.76,7.16-5,11.38Zm22,7.11c.07-4,3.88-8,2.13-11.38C1059.59,229.26,1056.59,234,1058,237.08Zm-18.5-4.27c-.59-1.85,2.15-3.9,0-5C1039.38,230,1035,232.22,1039.45,232.81Zm.72,2.85c2-.19,2.63-5.38,1.42-6.4-.24,2.37-2.06,3.15-1.41,6.4Zm35.56,12.8c.09-5.92,6.53-15.46,0-19.2.66,2.38-2.56,4.48-.72,5.69,2.2-.24-1.73,6.91-2.13,9.24-.19,1.09.82,2.51.71,2.85-2.83,9.24-10.64,17.15-13.51,26.32,5.06-2.05,7.17-8.75,10-13.52,3.07-5.26,5.59-11.07,9.24-13.51-2.51,4.89-5.11,10.06-7.82,14.93s-7.39,9.47-7.11,14.94c5-5.4,8.88-13.28,12.09-19.2,1.17-2.17,1.49-5.71,4.26-6.4-4.13,12.46-11.92,21.27-16.35,33.43-2.22-.33-2.55,1.79-1.43,2.84,3.29-.8,4.26-4.67,5.69-7.11,5.07-8.62,9.8-17.55,14.94-25.61-.2,1.62.17,2.68,1.42,2.85,1.93-6.77-3.17-12.4-5-17.78-2.07,2.42-2.26,6.73-4.27,9.24ZM1043,240.64c3.85,1.21,3.31-5.67,2.85-6.4-1.21,1.88-1.64,4.51-2.85,6.4Zm2.86,3.55c2.33-.06,3.26-5.22,2.13-6.4-.25,2.61-2.83,2.87-2.13,6.4Zm17.77-.71c-2.26,5.33-5.06,10.11-6.4,16.36,4.14-2.49,6.56-15,6.41-16.36Zm-16.36,4.27c1.88.38,2.42-4.13,1.43-4.27-.4,1.49-1.76,2-1.42,4.27Zm7.11,11.38c1.29-4.17,5.55-9.13,4.27-13.51C1056.7,249.13,1053.64,255.28,1054.38,259.13ZM903.6,249.88c1.11-.06,2.46.1,2.13-1.42h-1.42c0,.72-.59.85-.72,1.42Zm.69,2.85C901.9,250.57,902.14,255.36,904.29,252.73Zm-2.83,3.56h1.42c0-.91.91-1,.71-2.14h-2.13Zm148.67,4.26c2.21.51,3.33-3.69,2.13-4.26C1051.28,257.44,1049.73,258,1050.13,260.55Zm10.65.71c-.54-1.74,3.41-4.1,0-4.26C1061.56,258.82,1058.63,260.39,1060.78,261.26ZM900,259.84h2.13v-2.13H900Zm169.29,35.57c3.59.52,5.12-7.87,4.27-7.12-1.47,2.32-2.95,4.64-4.27,7.12Zm7.82-14.94c3.17-5.25,5.2-11.34,8.54-14.22-4.72,11.4-9.15,23.09-14.94,33.43,4.15-2.44,5.82-7.86,8.54-12.81,4.7-8.57,10.65-16.87,7.82-28.45-4.92,4.65-6.81,11.73-9.95,17.79S1070,288,1067.19,294c4.72-2.47,7.06-8.72,10-13.52Zm-25.6-14.94a26.88,26.88,0,0,0,2.85-5c-2.27-.08-4.55,3.46-2.85,5Zm5-2.13h2.14c-.17-1.26.71-3.56-1.43-2.85-.24,1-1,1.36-.72,2.85Zm5.69-2.85C1059.25,264.55,1063.39,262.59,1062.22,260.55Zm-10,13.52c1.28-3,3.67-8.64,2.13-12.09-.85,3.44-4.72,7.59-2.13,12.09Zm-155.79,32c2.06.31-.63,5.37,1.43,5.69,1.93-17.73,2-32.39,2.13-49.08-4.37,1.75-2.26,8.85-2.85,12.8,0,.06-1.41-.06-1.42,0-.37,3.74.79,8.44,0,12.09-.3,1.39-1.32,1.53-1.42,2.85-.79,9.87,1.13,21.09-7.11,24.18-.38,2.71-3.3,2.87-2.85,6.4-1.34-.15-1.57.81-2.84.71-.61,4.62-3.52,6.93-7.83,7.83-1.38,4.07-3.85,7.05-8.54,7.83.15,2.75-2.43,2.78-2.84,5-4.5,0-3.05,6-8.54,5,1.76,3.59-2.34,2.24-2.85,2.85-1.3,1.59-1.11,4.88-4.26,3.55-1,.91-.31,3.49-2.14,3.56-5.19,2.86-9.4,7.49-14.22,10.67-1.63,1.07-1.89.59-2.85,1.42-.56.49-1.52.23-2.13.71-2.44,1.93-3.31,4.47-5,6.41-.16.18-3,2.4-3.56,2.84-2.34,1.7-4.12,4.39-6.4,6.4-.08-.86-.21-1.68-1.43-1.42,1.06,3.19-2.08,2.19-1.42,5-7,1.34-6.18,10.42-12.8,12.09,1.32,3.53-.86,1.92-.71,4.27-1.35.16-1.57-.8-2.85-.71-1.43,2.39-1.31,4.95-3.55,3.56-1.76.84,1.45,2.68-.72,3.55-2.3-3.36.45,2.72-3.55,0,3.59,4.28-3.77,8.07-2.14,12.09,1.83-3.15,2.87-7.09,5.69-9.24-.21,1.39,1,1.41,1.43,2.13.07,2.25-3.15,4.86-1.43,6.4,1.85-3.15,3-10.72,5.7-10.67-1,2.14-3.33,6.6-2.14,8.54,1.39-2.3,1-4.26,3.56-2.13.68-2.17.83-4.86,2.84-5.69.39,1-.83,3.67.72,3.55,3-3.41,3.27-13.31,7.11-13.51-1.22,4.94-4,8.32-5,13.51,2.19.5,1.37.5,3.56,0,2.16-6.6,3.77-13.77,8.53-17.78-1.07,6.76-7.46,12-6.4,18.49,4.45-8.83,6.59-20,13.51-26.32a120,120,0,0,0-7.82,18.5c-.45,1.37-3.54,3.15-.71,4.27,1.32-2.47,1.49-6.1,3.55-7.83-.11,2-1.3,3-1.42,5,2.37-1.6,2.78-4.8,5-3.56-.55,1.59-1.49,2.78-1.42,5,2.65.3,1.1-2.53,1.42-3.55,1.18-3.69,3.06-7.5,4.27-10.67-1.17,0-.4-2-1.42-2.14-1.79,3.43-2.16,8.28-5,10.67,5.08-11.24,7.09-26.47,15.65-34.14,1-.88,2.82-.34,2.84-2.13.1,8-7.51,14.26-8.53,23.47,5.66-.77,4.47-8.23,6.4-12.09.09-.18,1.35.18,1.42,0,.43-1-.38-2.53,0-3.56.06-.17,1.34.17,1.42,0,.39-.75-.37-2.08,0-2.84.27-.54,1.78-.89,2.14-1.42,2.22-3.35,2.24-7.5,5-9.25-1.63,6.91-5.36,11.71-7.12,18.49,6.18-5.92,7-17.18,14.94-21.34-.34,4.88-2.9,7.54-3.56,12.1,2.67-2.55,4.19-6.25,5-10.67,2.44-1.59,3-5,5-7.12-.85,2.21-.75,6.19-2.13,8.54-.1.17-1.36-.17-1.43,0-.4,1.12.35,3.06,0,4.27.15-.52-4,4.63-.71,3.55,2.88-3.76,2.1-11.18,7.12-12.8-1-4.08,2.23-8.82,5-11.38-.65,4.58-5.5,8.71-3.56,13.51.76-1.37,2.41-1.85,3.56-2.84-2.62-2.59,1.75-9.31,3.56-12.09.79,4.14-3.84,6.56-1.43,10,3.34-4.25,3.45-11.72,7.83-14.93,0,3.6-4.45,8.65-1.43,10.67,1.66-5,4.32-9,6.41-13.52.73-.08,1.44,3.07,2.13.71-1.55-.1-1.53-1.79-1.42-3.55,3.43,2.06,2.51-3.34,5-4.27,1,3.69-2.93,3.87,0,5.69a56.37,56.37,0,0,1,7.11-17.79c1.89-.22-.66,4,2.14,2.85,1.49-5.18,1.6-11.7,2.85-17.1Zm-.71,9.25h1.42V313.9h-1.42Zm162.89-46.24c2.86.7,2.86-4.25,0-3.56C1058.57,267.3,1057.32,267.74,1058.65,269.09Zm18.49,0c-2.54,3.38-4.17,7.5-6.4,11.38s-5.75,7.48-6.4,12.09c6.22-5.37,10.13-17.35,15.65-25.6-2.63-.79-2,1-2.84,2.13ZM1053,276.91c.47-2.13,1.52.68,2.85,0,.77-1.81-1.53-.86-1.43-.71-1.45-2.2,1.25-3.4,2.14-6.4-2,1.08-4.84,5.1-3.57,7.11Zm3.57-5c1.47.62,3.19-1.85,1.42-2.14-.17,1-1.17,1.2-1.41,2.14Zm1.42,2.84c-.72,2.14,1.58,1.26,2.84,1.42v-2.13a4,4,0,0,0-2.85.71Zm30.59,2.13c2.07,1,2.07-3.18,0-2.13Zm-26.32,1.43h2.13c.13-1.55-.58-2.27-2.13-2.14Zm21.33,4.27c1.36-.86,5.27-5.67,2.13-6.41.27,3.12-2,3.66-2.13,6.41Zm-24.18-3.56c.71-2.38-1-2.33-2.85-2.13-.21,1.87,1,2.33,2.85,2.13ZM1048,283.32c3.36-.2,2.8-4.32,5-5.69-2.85.72-3.53,3.59-5,5.69Zm10,0a4.65,4.65,0,0,0,3.56.71c.68-2.62-3.5-2.83-3.56-.71Zm5-1.43c.2-1.86-.26-3.05-2.14-2.84C1059.38,280.38,1060.39,282.48,1062.92,281.89Zm-8.54-.71a4.6,4.6,0,0,0,3.55.71c.7-2.61-3.47-2.82-3.55-.71Zm31.3,6.4c2.2.18,4.07-6.33,2.85-5a27.75,27.75,0,0,1-2.86,5Zm-32-2.84h2.13v-2.13h-2.13Zm-10.68,10c-1.64,1.41-.79-.18-2.13-.71-9.08,13.44-23.47,21.57-36.28,31.29h-2.84c-1.06,4-5.11,2.55-7.83,3.56-.82.84-.8,2.51-.71,4.27-3,1.26-7.49,1.05-7.82,5,2.66-.42,3.85-2.31,5.69-3.56,9-2.17,17.32-8.88,25.6-14.22,10.49-6.77,21.86-15.57,27-26.32,1.91-.47,2.71-2,4.27-2.85-.08-2.72,3.55-5.42,2.14-7.11-2.91,3-6.09,5.77-7.11,10.67Zm39.13-7.83c1.8.54,3.34-2.71,2.14-2.84C1084.06,285.48,1082.34,285.42,1082.13,286.87Zm-25.6,0h2.85a1.53,1.53,0,1,0-2.86,0Zm-2.15-.71c-1-.22-1.36-1-2.85-.71-1.11,2,3.08,2,2.86.71Zm8.54,3.56c1.28-1.22-.22-2.8-2.14-2.85C1060.59,288.73,1061.05,289.93,1062.92,289.72Zm-7.11.71h1.43c0-.91.91-1,.71-2.14-1.62,1-2.67-1.83-2.85,0,.83.13.78,1.13.72,2.14Zm-7.82,2.13c2.39-.22,2.84-2.37,3.56-4.26-2,.58-2.4,2.82-3.55,4.26Zm32.72,6.41c.83-2.9,5.86-8.62,4.27-9.25C1083.74,292.52,1079.3,295.87,1080.71,299Zm-22.06-6.41h2.13q.2-2.32-2.13-2.13Zm-5,.71c1.62.2,2.67-.17,2.84-1.42-.43,0-.84-.11-.71-.71h-1.42a3.37,3.37,0,0,1-.72,2.13Zm24.18,2.85c-.12-1.61,3.42-3.13,1.42-4.27.14,1.61-3.42,3.13-1.41,4.27Zm-21.33-.71c1.62.2,2.67-.17,2.85-1.42-1-.23-1.36-1-2.85-.72Zm5,2.13c.25-2.12,2.15-2.59,3.56-3.55-1-.23-1.36-1-2.85-.71.38,2.35-4,3.08-.7,4.26Zm-9.24-1.42h1.42c0-.91.91-1,.71-2.13H1053c0,.91-.92,1-.72,2.13Zm13.51,5.69c2.33-.52,3.13-2.56,4.27-4.27-2.7-2.19-3.33,2.47-4.27,4.27Zm1.42-6.4h-1.43c0,.91-.91,1-.71,2.13h2.14Zm-12.81,2.13c1.62.2,2.67-.17,2.84-1.42-1.26.16-3.55-.72-2.85,1.42Zm3.57,2.14c1.12-.07,2.47.09,2.13-1.43h-1.42c0,.72-.59.85-.72,1.43Zm-6.41,1.42a2,2,0,0,0,2.14-1.42C1052.56,299.74,1051.2,299.58,1051.54,301.1Zm-10,1.42c1.46.63,3.19-1.84,1.42-2.13-.17,1-1.17,1.2-1.42,2.13Zm18.49,5h1.43v-1.42h-1.43Zm9.24,0h1.42v-1.42h-1.42Zm-160,66.87c-.94,0-.65-1.25-1.42-1.43,1.35,2.49-.4,3.12-1.42,5-.93-1.76,2.08-2.95,0-3.55-1.07,1.07-1.28,3-2.85,3.55-.11-.83.12-2-.71-2.13-2.22,1.73-.43,3-.71,6.4-3.64,1.35-2.42,7.54-7.12,7.83-.11-.84.13-2-.71-2.14-1,1.46-2.18,5,0,2.14.1,2.46-.61,4.13-3.55,3.56-.22,1.39,1,1.41,1.42,2.13-3.33.21-1.84,1.89-2.14,2.84-.36,1.18-4.63-.23-2.13,3.56-5.18.79-4.43,10.36-10.67,7.83-1.18,2.23,2.65,2.9.71,3.55-.91,0-1-.91-2.13-.71-1.14,2,1.19,3-2.13,2.85,0,3.51-1.87,5.67-5,8.53-.53,2.19,2,1.37,1.42,3.56,3.09-2.65,10.1-7.18,6.4-12.09,2.05,2.06,2.23-1.39,5-.71,5.36-7.21,11.87-13.27,17.78-19.92h3.56c.2-1.25-2-3.55,0-4.27,2.3-.88.54,2.3,2.85,1.42.06-1.11-.1-2.46,1.42-2.13.21-1.4-1-1.41-1.42-2.13,4.34-5.85,10.66-9.73,17.07-13.52.16.56,0,1.41.71,1.43,7.53-8.12,18.78-12.52,26.32-20.63-3.94-.86-4.14,2-7.12,2.13,0-1,3-2.25,0-2.13-.39,1.26-.36,2.95-1.42,3.56-1.62.19-2.67-.18-2.84-1.43a15.26,15.26,0,0,0,5-5c8.68-6,21.7-10.53,29.87-16.37,2.17-1.54,3.4-1.4,5.69-1.42.17-2.2,3-1.71,3.56-3.56-4.18,1.24-6,1.4-10,3.56.49-3.2-1.46-1.9-2.14-.71-1.91-1.85.87-2.14.72-4.27-2.89.2-1.29,4.89-3.56,5.69.3-3.52-2.13-.4-2.85-2.13,1.09-1.76,1.6-4.09,2.85-5.69-2.63-1.78-3.84-.55-7.83-.71a60.58,60.58,0,0,0-3.55,7.82c-.75-2.91,2.19-5.81,0-7.82.34,2.48-1.79,2.48-2.85,3.55,2.29.39-.54,4.81-.71,7.12-1.27-.63-1.81-2-4.27-1.43.35,3-1.3,3.92-2.13,5.69-1.23-.43.05-3.37-1.43-3.55,0,2.38-1.8,2.94-2.84,4.27-.32-1.35,1-4.29-1.42-3.56.32,3.41-1.56,4.61-2.14,7.11-.84-.11-2,.12-2.13-.71,1-.25,2.43-3.62.71-4.27-1.76,2.27-.55,7.51-4.27,7.83v-2.85c-3.78,1.2-3.62,6.34-5.69,9.25-2-.1.61-4.88-1.42-5-1.62,3.13-2.45,7-4.27,10-.71-.95-1.17-2.15-2.14-2.84-2.7,4.4-5.05,9.17-8.53,12.8-.28-1.23,1-1.82,0-2.13-2.34,1.7.51,4.23-1.4,6.4ZM976.86,331c1.84.65,3.49-4,.71-3.55.29,1.71-1.3,1.54-.71,3.55Zm76.82-1.42c1-.39,3.67.83,3.55-.71a2.27,2.27,0,0,0-3.55.71ZM952,333.82c1.09,0,1.56-5.27-.71-4.27.09,1.19-2.3,4.53.72,4.27Zm37-.71c-.12-1.54,2.53-.32,3.56-.71,1.27-4.45-5.76,0-3.55.71Zm-49.08,0a2,2,0,0,0,2.13-1.42C940.89,331.75,939.53,331.59,939.87,333.11Zm2.83.71h2.14c.09-1.28-.71-1.66-2.14-1.42Zm42.68.71h1.42v-1.42h-1.42Zm35.58.71h1.42v-1.42H1021Zm-14.23,5c4,0,8,0,9.25-2.84-2.76,1.28-7,1.06-9.26,2.84Zm5.69-4.27c-2.66,1.61-8.7-.16-9.25,3.56,3.12-1.14,8.2-.32,9.24-3.56Zm-29.87,3.56c2.07,1.05,2.07-3.18,0-2.13Zm-7.12,3.56c1.15-1.22,4-.75,4.26-2.85-1.83-1.62-4,.71-4.27,2.85Zm5.68-2.14c1.12-1.05.8-3.17-1.42-2.84-.19,1.62.17,2.67,1.42,2.84Zm16.36-.71c3.1-.63,3.94.62,5-1.42-2,.12-4.87-.61-5,1.42Zm10,2.14c2.48.53,5.37-2.16,7.11,0-2.56.28-5.95-.27-6.4,2.13,3.69.58,7.75-2.17,10.67,0-3-.75-4.82,1.5-6.4,0,1.25,3.09,10.3,2.65,14.93,1.42,2.26-.6,5.6-2.77,5-3.55-3.42,1.58-8.67,1.58-12.8.71a7.24,7.24,0,0,0,6.4-2.14c-3.91-.81-7.72,2.2-10.67,0,1.81.32,5.15-1.4,3.56-2.13-2.85,2.12-9,1-11.37,3.56Zm11.37,6.4c5.62-.08,11.77.39,14.94-2.14-4.67-.6-12.11-1.09-14.94,2.14Zm-90.34-6.4c1.46.62,3.19-1.85,1.42-2.14-.06,1.12-1.79.56-1.42,2.14Zm5.7-.71C931.78,339.48,932,344.27,934.18,341.65Zm38.41,2.84c1.88.21,2.33-1,2.14-2.85h-2.14Zm8.52-.71c1.81.75,4.06-1.5,2.14-2.13C983.17,343,980.9,342.14,981.11,343.78Zm-10,2.13c.55-.48,1.85-4.24-.72-3.55a2.29,2.29,0,0,0,.72,3.55Zm14.94,0c2,.11,2-1.74,2.13-3.55-1.06.12-2.62-.26-2.84.71,1.06.13.66,1.72.72,2.84Zm-59,.71h2.14c-.84-1.86,2.19-3.06-.72-2.84.89,2.3-2.28.54-1.41,2.84Zm42,0a1.68,1.68,0,0,0-1.42-2.84c.09,1.32.47,2.37,1.42,2.84Zm-1.42-.71c-.93,0-.65-1.25-1.42-1.42-.81,1.46,1.12,3.39,1.42,1.42Zm-41.26,3.56h2.14v-2.14h-2.14Zm24.9,2.84c.11-.84,1.27-1.61,0-2.13C951.15,351,950,351.79,951.24,352.31Zm2.86.72h2.13c-.12-1.07.25-2.63-.71-2.85-.3,1.12-2.23.61-1.42,2.85Zm-33.44,0c1.46.62,3.19-1.85,1.42-2.14-.06,1.12-1.8.56-1.42,2.14Zm31.3,1.42c.17-1,1.17-1.2,1.42-2.14-1.45-.62-3.19,1.85-1.41,2.14ZM969,358.72c.8-1.34,2.76-1.51,3.56-2.85-1.42.29-5.54,1.49-3.55,2.85Zm-2.12,3.55c1-2.12,7.52-2.41,5.7-5-1.14,2-7.09,2.84-5.69,5Zm-102.43-2.84h1.42V358h-1.42ZM863,362.27h2.14c.09-1.27-.71-1.66-2.14-1.42Zm3.57.71c1.12-.06,2.47.1,2.14-1.42h-1.42c0,.72-.59.85-.72,1.42Zm101,2.14c1.44-1.65,5.22-.95,5.69-3.56-1.58,1-7.19,1.76-5.68,3.56Zm-109.54-.71h2.14c.09-1.28-.71-1.67-2.14-1.43Zm3.56.71h2.13V363h-1.42c0,.91-.91,1-.72,2.14Zm4.27.71H868c.09-1.28-.71-1.67-2.13-1.42Zm100.3,3.55c3-1.54,6.69-2.32,9.24-4.27-3.91.62-7.51,1.51-9.25,4.27ZM860.92,368h2.13c.09-1.27-.71-1.66-2.13-1.42V368Zm-5,2.14c1.46.62,3.19-1.85,1.42-2.14-.17,1-1.17,1.21-1.41,2.14Zm2.13,4.27h2.85c.36-2.23-1.95-3.18,1.42-2.85.2-1.86-.26-3.06-2.13-2.84-.57,2.06-1.44,3.79-2.14,5.7Zm44.1-3.55h1.42v-1.43h-1.42v1.42Zm-38.41,1.41h2.14V370.1h-2.14v2.13Zm107.41,0c-.38-1,2.77-1.73.71-2.13.09.74-3.06,1.44-.72,2.13Zm-707,.72c-57.8-.75-129.18.4-175,15.65H87.71c-1.11,2.38,5.93-1.73,7.12.71-11.2,3.5-23.35,6.06-32.72,11.38,33.23,6.33,66.7,10.41,99.58,15.65,5,.79,9.68,1.79,14.94,2.84,5,1,10.5,1.12,15.65,2.14,2.68.53,4.78,2.12,7.82,2.84,8,1.91,17.87,3.28,27,5,64.82,12,124.61,24.1,189.21,35.57,19.11,3.39,39.64,7.45,58.33,10.67,6.74,1.16,13.88,4.09,19.21,4.27,2.89.09,7-1.46,10.66-2.14,6.19-1.13,11.85-2.09,16.36-2.84,4.31-.71,7.46-1.54,10.68-2.14,31.81-5.9,63.71-12.32,93.89-17.78,14.59-2.64,26.84-9.05,39.12-13.51-1.5-3.13-5.48-3.17-8.54-4.27-9.4-3.42-20.11-6.54-27.74-11.38-.15-2.29,1.26-3,.71-5.69-38.47-8.15-80.69-17.71-120.92-23.48-68.53-9.82-135.62-18.74-207.71-22.76-3.95-.22-8.67-1.2-12.09.71,11.3.73,23.21,2.29,34.86,2.85s22.69,2.11,33.43,2.84c13.26.91,26.52,1.1,39.12,2.85,9.08,1.26,17.83,3.16,27,4.27,2.75.33,7.67-1.92,9.25,2.13C378.41,383,324.38,375.8,266.26,375.8c-6.3,0-12.87,1.19-18.5-1.43,13.88-2.23,27.74,1,39.83-.71-8.44-2.4-16.47-.7-23.48-.77Zm590.39.7c.72,0,.85.58,1.43.71-.07-1.12.09-2.47-1.43-2.13v1.41Zm118.08,1.42c1.34-.61,6.23-1.3,4.27-2.85-.93,1.47-4,.78-4.27,2.85Zm-111-1.42a3.31,3.31,0,0,0,.71,2.13c1.87.22,2.33-1,2.13-2.84a4.09,4.09,0,0,0-2.85.72Zm-21.33,6.4c2.81.6,3.74-7.19,2.84-5.69-.94,1.91-1.92,3.78-2.85,5.69Zm9.24-4.27c1.11-.06,2.46.1,2.13-1.42h-1.42c0,.72-.59.85-.72,1.42Zm24.9,1.44h2.13v-2.13h-1.42c-.06.9-.93,1-.72,2.13Zm-17.08,0h2.13c.09-1.28-.7-1.66-2.13-1.42v1.41Zm-7.82,1.42c.06-1.12,1.81-.56,1.42-2.14-1.46-.62-3.19,1.84-1.42,2.14Zm12.09-.72H863V376.5h-1.42v1.41Zm-3.56,2.13v-2.13h-2.13c-.13,1.55.59,2.27,2.13,2.14Zm-12.8,1.42v-1.42c-1.31-2.36-3.46,2.13,0,1.42Zm.71,2.85h2.85a1.52,1.52,0,1,0-2.85,0Zm2.86-2.13c.17-1,1.17-1.2,1.42-2.13-1.76-2.29-4.4,1.66-1.42,2.13Zm2.11,0c2.08,1.05,2.08-3.18,0-2.13v2.13Zm2.86,0c1.73.46,3.66,1.43,3.55-1.42-1.75-.12-3.44-.14-3.55,1.41Zm5,.72h2.14c.09-1.28-.71-1.67-2.14-1.43v1.42Zm-15.66,1.41c.07-1.12,1.82-.55,1.42-2.13h-2.13c.11.83-.11,2,.72,2.13Zm10,.72c1.26-.16,3.56.72,2.84-1.42-1.62-.21-2.68.15-2.85,1.42Zm-8.52,3.55c1.86.2,3.06-.26,2.84-2.13-.9,0-1-.91-2.13-.71-.25,1-1,1.36-.72,2.85Zm28.45,0h1.42c0-.71.58-.84.71-1.42-.9,0-1-.91-2.13-.71v2.14ZM832.47,390c1.87.22,1.83-1.48,2.13-2.85-1.89-.2-2.34,1-2.13,2.86Zm10.65.72c1.77.1,3.45.13,3.56-1.42-1.34.3-4.27-1-3.55,1.41Zm6.41.7c1.62.2,2.67-.17,2.84-1.43-1.62-.18-2.68.17-2.85,1.42ZM836,392.86c.1-.84,1.26-1.61,0-2.13C835.9,391.56,834.75,392.33,836,392.86Zm51.22,2.84c1.94,0,4.19-3.34,2.84-4.27-.53,1.87-2.57,2.19-2.85,4.27Zm-39.13,0h2.13c.09-1.28-.7-1.67-2.13-1.43v1.42Zm36.27,6.4c.07-2.54,2.65-2.56,2.85-5-2.61-.41-4.48,3.55-2.86,5ZM826.06,400C822.92,398.17,822,402.54,826.06,400Zm-.72,2.85c-2.19.53-1.36-1.95-3.55-1.42-1.44,2.7,3.23,2.81,3.55,1.41ZM881.55,405c2.07,1.05,2.07-3.18,0-2.13V405Zm-60.48,1.42c1.77.11,3.46.13,3.56-1.42-1.34.3-4.29-1-3.55,1.42Zm59,.72h1.43v-1.42h-1.43v1.41Zm-61.17,3.55c2.27.42,2.2-1.33,3.56,0a3.91,3.91,0,0,1,.71-2.84h-3.56c.15,1.36-.81,1.58-.72,2.85Zm59.76-1.42h1.42V407.8H878.7v1.42Zm-96,6.41c1.71-1.71-2.33-1.84-2.13-.71,0-.06,2.4.43,2.14.72Zm-5,9.24c2-2.27,3-5.55,4.27-8.54-1.35.16-1.57-.8-2.85-.71,1,2.86.22,1.88-2.13,1.42-1,1.62,1.83,2.68,0,2.85-2.18-2.48-2.22,1-5,.71,2.8,1.93-2.8,5.18,0,7.11,1.24-1.36.83-4.38,3.55-4.27.11.95-2.39,2.65-.71,2.85,1.5-1.35,1.6-4.09,3.56-5,.08,1.25-2.06,5.42-.68,3.57Zm72.56-7.11c1.92.49,1.38-1.47,2.14-2.13-1.93-.49-1.38,1.45-2.14,2.13Zm-65.44,5c-.77-1.82,3.06-2.49.71-3.55,0,1.05-2.64,2.91-.72,3.55Zm83.94-1.41c1.46.62,3.19-1.85,1.42-2.14-.17,1-1.17,1.19-1.41,2.14Zm-76.12,1.41c0-1.41,1.94-.9,1.42-2.84h-2.13c.13,1.07-.25,2.62.72,2.85Zm71.13,0h1.42c0-.91.91-1,.72-2.13h-1.43c0,.91-.9,1-.72,2.13Zm-96.73,5c4.31.75,3.05-4.06,5-5.69-3.51.06-5,2.08-5,5.69Zm101-3.57c.11-.84,1.27-1.61,0-2.13-.09.85-1.26,1.62,0,2.13Zm-7.82,3.57h2.13c-.75-2.66,1.77-2,1.43-4.27-2.72.93-1.85,1.78-3.55,4.27ZM762,429.85c3.37.28,3.05-3.11,4.27-5-3.7-.6-3.64,2.52-4.27,5Zm-3.55-2.13c2.54.6-1.83,3.67.71,4.27.75-3.91,2.26,1.39,3.56,1.42,2.28-2.37-1.66-2.52-2.13-4.27.82-.23,2.45-3.1.71-3.55-.21,1.45-3.16.17-2.86,2.13Zm-2.13,0c0-.43.11-.84.71-.71-.78.94-3.83,3.21-1.42,5,.11-.83,1.12-.78,2.13-.71,1.49-3.71-2.36-6.5-1.44-3.54Zm105.27,6.4c3.34-1.3,7.43-5.16,7.11-7.82-2.87,2.1-4.89,5.05-7.12,7.82Zm5-.71a18.74,18.74,0,0,1-5.69,2.13c-.59-2,1-1.84.71-3.56-2.77.07-2.81,2.88-4.26,4.27,4.27.7,9.48-1.38,9.24-2.85Zm-98.16-5c-.6-.61-2,.51-2.13.71-.68,1.25,2.62-.23,2.13-.72Zm1.42,1.43h1.42v-1.42h-1.42v1.42Zm88.92.7h1.43c0-.91.91-1,.71-2.13H859.5c-.06.91-.93,1-.72,2.14Zm5-1.41Zm-113.09,3.55a3.4,3.4,0,0,0,3.56-3.56h-2.85c.59,2-1,1.85-.7,3.55Zm0-3.55c-2.66-.06-2.43,2.79-2.84,5,2.66,0,2.43-2.79,2.85-5Zm103.14,5c.28-1.85,2.12-2.14,2.13-4.26-2.08-.38-3.78,3.25-2.13,4.27Zm-108.13,0c1.22-.68,1.56-2.23,2.14-3.55-2.59-1.12-3.93,2.59-2.14,3.55Zm77.54,3.56c3-4.47,11.3-5.44,17.07-5-1.91.49-1.38-1.47-2.14-2.14-7.87-1.11-14.15,2.19-14.94,7.13Zm21.35-3.56c1.77.5,3-3,1.42-3.55-.3,1.34-1.53,1.77-1.42,3.55Zm4.27,1.42c-.17-1.26.71-3.56-1.43-2.84v3.55c5.66.91,12.57-.7,10.67-5-1.6,1.25-1.64,4.06-4.27,4.27a2,2,0,0,1-2.13-1.42c-1.22-2.32,3.41-3.42,0-3.56a14.09,14.09,0,0,1-2.85,5Zm-106.71-1.42c1.88.22,1.84-1.48,2.14-2.84-1.87-.21-2.35,1-2.14,2.85Zm22.77-.71h1.42c0-.72.58-.85.71-1.43a3.26,3.26,0,0,1-2.13-.71v2.14Zm76.81.71c1.88.22,1.84-1.48,2.14-2.84-1.87-.21-1.83,1.49-2.14,2.85Zm26.32-.71C872.39,432.56,869.8,430,868,433.41Zm-109.54,2.13C755.08,433.56,756.76,437.86,758.48,435.54Zm-20.63,0c-1.35.91-4.71-.71-2.84,1.42-.34-1.79,3.53,2,2.85-1.41Zm-10.67,3.55h1.42v-1.42h-1.42v1.42Zm-63.31,4.27c.29-1.6,3.9.11,3.55-2.13-1.79-.32-5.13,1.4-3.55,2.13ZM915,459c-2.12.28-9.18-.69-7.83.71,1.25.41,4.18-.86,4.27.71-.84.11-2-.12-2.13.71-1.64,1.17,6.41-.88,5.69,0,.12-.15-3.65.54-2.85.71,6,1.27,8,1.52,14.94.71-5.48-1.32-8.24-1.4-12.09-3.59Zm24.9-2.84a157.83,157.83,0,0,1-25.61-10.67c.84-.11,2,.12,2.14-.71-6.29-1.74-9.48-1-14.23-3.55-1.13,2.52.68,4.8-3.56,5,2.74,3.62-1.08,5-1.42,8.53,8.65,1.15,17.21,3.95,25.61,6.4,4.58,1.34,10.76,3.25,14.93,1.43-11.93-4-24.83-6.94-36.27-11.38,7.2,1.34,14.14,2.93,19.92,5.69-1.22-3-4-1.57-3.56-5-3.69-1.53-8.24-2.2-10.67-5,5.42,1,10.53,6.05,15.65,5-3.72-1.5-7.88-2.56-10.67-5,12.08,4.51,22.79,10.41,37,12.8-1.78-3.46-6.14-2.59-9.26-3.57Zm-11.39.7c3.89,1.28,11.09,7.07,14.94,3.56-7.78-2.19-15.65-4.28-22.77-7.11-.55.15-.83.59-.71,1.42,2.7,1.34,5.27,1.07,8.54,2.13ZM941.29,454c-1.77.92-2.95-2.09-3.56,0,.43.39,3.36,1.66,3.55,0Zm-10.68-3.55c-4.64-.83-9.26-5.43-13.51-4.27,4.08,1.38,9.48,5.19,13.51,4.27ZM676,447.63C670.75,450,663.24,453,662.45,459c3.38-1.14,5.21-4.36,7.82-6.4,3.91-3.05,8.23-4.62,12.8-7.11-4-.47-5.12,1.25-7.12,2.13Zm-18.48,32c4.15-.14,9.39-2.92,12.81-1.43-.52,1.62-4.93-.65-4.27,2.14,3.84,1,3.77-1.92,6.4-2.14,1.78.6-.82,5.56,2.13,5,1.38-2.17.37-6.74,2.85-7.82-.53-3-3.12-4-5.69-5-.18,2.58,4.07,4.41,2.84,5.69-2.73-1.54-4-4.57-5-7.82.83-.12.78-1.13.72-2.14,5.39-4.52,12.84-10.31,22.05-10,7.83.3,10.67,5.57,15.64,6.41-1.79-2.71-5.7-3.32-7.11-6.41,2.25.16,4.35,4.14,6.4,2.14a9.3,9.3,0,0,1-5-4.27c1.07-.12,2.63.25,2.85-.71-1.33-1.4-2.61-.22-4.27,0a6.48,6.48,0,0,1,5-3.56,2,2,0,0,0,0,2.84c1.87-.5,3.2-1.54,2.85-4.26-2.41-.2-4.09-1.13-7.12-.71-.82,2-1.46,4.22-4.27,4.26.77-2.07,3-2.67,2.85-5.69-26-.64-39.35,11.43-42.72,33.42Zm4.25-24.19c.24-2.4,4.73-4.24,2.85-6.4-.53,2.12-4.06,4.91-2.85,6.41Zm-6.4-1.41c1.86.2,3.06-.26,2.84-2.14-1.36.31-3.06.25-2.85,2.14Zm5,.7C662.38,450.62,658.56,452.87,660.32,454.74Zm276-2.14C931.84,450.13,933.6,454.47,936.3,452.6Zm125.2,3.57c2.44,1.12,3.38-4.76.71-4.27-.83.84-.81,2.52-.72,4.27Zm9.24-.72c2.15,1.1,1.87-3.68.71-3.55.3,1.72-1.3,1.55-.72,3.55Zm-29.87-2.13v3.55c2.67.54,1.55-2.71,3.56-2.84.11.84-.13,2,.71,2.13,1.11-2.73.56-1.41,2.84-.71-.16-1.34.81-1.57.71-2.84-3.26-.38-4.44,1.28-7.84.73Zm8.54,2.13c1.86-2.08,3.89.44,4.27-2.84h-4.27v2.85Zm6.4-.71h1.43c0-.91.91-1,.71-2.14h-2.14v2.14Zm8.54,1.43c3.08,1.08,3.84-3.25,1.43-3.55-.31,1.34-1.53,1.77-1.42,3.55Zm5.69-.72c-.3-1.36-.26-3.06-2.13-2.84-.21,1.87-.25,3.57,2.13,2.85Zm3.55,0a10.74,10.74,0,0,1,5,0v-2.84c-2.25,1-2.38.15-5,0v2.85Zm6.41-2.85C1078.05,456.23,1082.47,455.26,1080,452.6Zm6.4,0C1080.75,453.45,1086.61,459.31,1086.4,452.6Zm2.14,6.41h2.84c-1.68-2.81,2.82-4.45-.71-6.41-2.21,2.22.13,4.54-2.13,6.41Zm-6.41-5.69c-.05,0,0,.66,0,.71-3.38,3.85,3.42-1.32,0-.72Zm10.68.72a3.91,3.91,0,0,0,.71,2.84c3.06.93.88-3.38,3.55-2.84.16,1.34-.8,1.57-.71,2.84,2.31.41,3.31-.48,5-.71-.62,2.28,1.85,1.48,2.14,2.85,5.9.7,9.82,1.2,14.22,2.84,6.47,2.41,10,9.35,16.36,9.25-7.69-11.3-23.88-17.85-41.26-17.08Zm-56.91,0h-2.13c-2.14,4,2.72,4.61,2.13,0Zm.7,2.83q3.35.5,2.85-2.84-3.35-.5-2.86,2.85Zm-401.88,0c1.58-.55,3.86-.41,4.27-2.13-1.19,1-4.54-.25-4.27,2.13Zm81.08-.7h1.43v-1.42H715.8v1.42Zm230.47.7c.51-1.77-3-3-3.55-1.42.92.72,2.6.7,3.55,1.42Zm79,0c2,1,4.27-1.27,2.13-2.13-.07,1.34-2.36.51-2.13,2.13Zm4.27.72c1.78.12,1.72-1.59,2.84-2.13-1-.23-1.36-1-2.84-.71-.08,1.94,1.17,1.43,0,2.85Zm-12.81,0c1.26-.16,3.56.72,2.84-1.42-1.32.09-2.38.45-2.85,1.41Zm4.27,0c1.76.11,2.95-.37,3.55-1.42-1.34.3-4.28-1-3.55,1.41Zm-123.77.72c1.26-.16,3.56.71,2.85-1.43h-2.85v1.42Zm9.24-.72c-2.47.57-2.73-1.06-5-.71-.4,3.3,3.44,1.74,5,.72Zm105.29.72a2.28,2.28,0,0,0,3.55-.71c-.85-.91-2.68-.31-3.55.71Zm51.92-1.44c-2.21-.24-3.4,1.65-5,0,.41,2.76,4.68,2.48,5,0Zm.71,2.14c1.36-.3,3.06-.26,2.85-2.14-1.87-.19-3.08.27-2.85,2.14Zm3.55,0h1.43c0-.91.91-1,.71-2.14h-2.14V459Zm5.69,0H1075c0-.91.91-1,.72-2.14h-2.14V459Zm2.85-.7a2,2,0,0,0,2.14-1.43,1.94,1.94,0,0,0-2.14,1.42Zm7.83.7c.06-1.12,1.81-.56,1.42-2.14-1.46-.62-3.19,1.85-1.42,2.14ZM1038,457.59C1037.45,461.9,1041.29,458.06,1038,457.59Zm-34.16,2.85c1.26-.39,3-.36,3.55-1.42-1.75-.11-3.43-.15-3.55,1.42Zm21.35,0c1.62.2,2.67-.17,2.84-1.42-1.62-.21-2.68.15-2.85,1.42Zm-317.25.7h1.43v-1.42H708v1.41Zm295.2-1.42c-.6-.6-2,.52-2.13.71-.68,1.25,2.62-.22,2.13-.71ZM942,464c3.57-2.54,10.35,2.39,12.81-1.42-4.42-.09-11.49-3.53-12.81,1.42Zm-345-.71c2.2.07,3.94-.33,5-1.43-2.21-.07-4,.32-5,1.42Zm123.06,0c1.12-.07,2.47.09,2.14-1.43h-1.42c0,.72-.59.85-.72,1.42Zm179.26.71c1.76.11,3.45.14,3.55-1.42-1.34.3-4.28-1-3.55,1.42Zm-185.66,0C710,465.71,716.13,465.83,713.67,464Zm188.49,1.42c1.77.11,3.45.13,3.56-1.42-1.76-.12-3,.36-3.55,1.41Zm56.21,4.27c7.92-1.08,16.28-1.73,22-5-7.9,1.11-15.74,2.3-22,5Zm-268.18-2.85c-1-.17-1.21-1.17-2.14-1.43-.62,1.48,1.85,3.2,2.14,1.42Zm5-.7c.12-1.54-2.52-.32-3.55-.71-1.63,2.81,4.34,3.15,3.55.72Zm12.09,3.55c.28-1.22-1-1.82,0-2.13.72,0,.85.57,1.43.71.12-1.78-1.1-2.23-2.14-2.85.68,1.78-2.53,4.29.72,4.27Zm5.69-2.13c1.66-.24,3.07-.73,3.56-2.14-1.81.08-2.48,1.3-3.55,2.14Zm7.82,3.55c1.68,0,2.1-1.23,4.27-.71-.28-1.23,1.06-1.83,0-2.14-1.06,2.34-1.11-2.11-2.13-2.13,0,.43-.11.84-.71.71v1.42c3.68.46-1.65,1.42-1.42,2.85Zm175-3.55c0,.39,5.7.53,5.69-1.43-1.78.59-6.12-1.38-5.69,1.42Zm-318.66-.72c-1,.39-3.68-.83-3.56.71,1-.4,3.66.83,3.55-.72Zm138,10c-.88-3.63-1.25-7.76-4.27-9.25a37.36,37.36,0,0,0,4.27,9.24ZM1100.63,469c-3.1,0-4-2.2-7.83-1.42-.3,3.12,7.88,3,7.83,1.42Zm-537.76.72c2.49.12,4.55-.19,5.69-1.42-1.89.47-4.44.28-5.69,1.41Zm369.88,1.42c-4.76.54-11.2-1.79-12.81,2.84,8,1.15,15.46-2.58,24.9-3.55.1-.84,1.27-1.62,0-2.14-3.14.85-10,2.61-12.09,2.84ZM684.5,474.67c0-1.89-.4-4.19,1.42-4.27.79,3.51,3.63-1.84,5,1.42a5.09,5.09,0,0,1,1.42-2.13c0,.75.92.56.72-.71-6.9-1.42-13.34,3.57-8.54,5.7Zm26.32-4.27c-.05-.46-2.33-2.39-2.14-.71s2.27,1.89,2.14.72Zm180.67,1.41c2.38-1.4,6.36-1.22,8.53-2.84-3,.3-10.39,0-8.54,2.85Zm193.49,0c2.2.93,4-2,2.14-2.84-.72,1-1.93,1.4-2.14,2.85ZM540.82,474c6-1.55,14-1.16,18.5-4.27-5.67,1.93-13.68,1.51-18.5,4.27Zm406.87-2.14c2-.12,4.88.62,5-1.42-2.21-.07-3.95.32-5,1.42Zm140.85,0a56.81,56.81,0,0,0,8.53,1.43c-1-2-7.46-4-8.54-1.42Zm-369.18,12.1c1.18-3.32,1-10.82-2.14-12.1C717.88,475.9,718.13,480.39,719.36,483.91Zm-32.73-10c-.37-3.58-2.64,9.87-.71,10.67.42-3.38,1-6.56.72-10.67Zm29.87.72c.2-1-.44-2.78-.71-1.42-.17,1,.45,2.75.72,1.41Zm197,.7c.45-1.45,3.6-.2,2.85-2.85h-2.85c1,1.63-1.83,2.68,0,2.85Zm-235.46,9.95c-1.15-5.44,3.23-9.08,2.14-12.09-2.4,1.76-5.31,9.35-2.14,12.09ZM725,483.91c3.25-1.44.45-8.28,0-10.67-1.58,2.68.87,6.46,0,10.67Zm1.44-10.68C726.48,480.73,730,478.18,726.48,473.23Zm359.2,0c-.6-.6-2,.52-2.13.71-.66,1.25,2.63-.22,2.13-.72ZM900,477.5c2.86-.69,5.79-1.31,7.82-2.84-1.32-.25-6.65.66-7.82,2.85Zm-176.4,11.39c.39-4.63,1.55-11.87-1.43-14.22,1.59,3.61-.34,10.77,1.42,14.22ZM873,478.22a6.61,6.61,0,0,0,4.27-2.85,5,5,0,0,0-4.27,2.86Zm221.21-2.85c-1,.39-3.67-.83-3.56.71,1-.4,3.67.83,3.56-.72ZM716.5,477.5c.77,6.37.15-4.83-.71-.71.08-.3.7.44.72.72Zm88.21,7.12c-.5,3.11,1.21,4,.71,7.12,3.27-.3,3.77-3.35,5.7-5-2.38.71-2.34-1-2.14-2.85a1.68,1.68,0,0,0,2.85-1.42c-.87-.55-4.16.59-2.14-2.84-3.76,1.24-5.63-2-8.53-3.56-1.43,3.82,1.57,13.55,3.55,18.49.78-5.29-3.53-9.25-1.42-13.51.32,2.17,6.44,1.24,4.27,6.4a2,2,0,0,0-1.42-2.13c-.68,1.32,2.13,2.37,0,2.84-.4-1.28-.38-3-1.44-3.57Zm277.42-7.12c1.26-.16,3.56.72,2.85-1.42h-2.85v1.42ZM683.8,481.77c0-1.19,2.31-5.19-.71-5,.41,1.5-.89,4.69.72,5Zm75.4-3.55h1.42V476.8H759.2v1.41Zm322.21.72c2.82.6,7.16,1.36,10.67,0-2.22-.92-7-.46-2.84-2.14-4.12.1-3.56,1.5-7.83,2.14ZM713,486c-3.62.07-4.94-2.18-7.11-3.56-1.44,9.24-6.94,14.41-17.07,14.94,2.14,1.65,5.71,1.87,6.4,5,2.34-1,6.08-.56,7.11-2.84-1.24-.2-3.55,2-4.26,0,2.38-2.42,7.84-4.22,10.66-2.14-.2-3.77,6.86-2.18,7.12,0-4.06,6-13.36,14-23.48,9.25,1.5.23,6.17.11,3.56-1.42-1.56,1.71-7.37-1.2-4.27-4.27-2.86-.49-1.2,3.54-2.84,4.27-.91-2.12-6.43.34-7.12,2.84,1.33.68,2.38-2.12,2.85,0a17,17,0,0,1-4.27,5c-1.74-.39-1.52-2.75-4.27-2.13-.59,2,1,1.84.71,3.56,11,6.42,26.37,4.38,34.14-.71,3.77-2.47,5-5.36,8.54-7.12-.7-2.83,2.13-2.14,1.43-5,4.59-3,5.34-9.84,7.11-15.65.5-4.07-1.21-4.07-.71,0-3.29,0-1.11,5.53-4.27,5.69-.21-1.45-1.43-1.9-2.13-2.85.94-2.29,2-5.27.71-7.82-.37-8.08-1.06,2.61-.71,5.69a13.38,13.38,0,0,1-5.7.71c.66,3-1.7,3-4.27,2.84a15.88,15.88,0,0,0-1.42-4.27c1.25-.41,2.93,2.08,3.54,0Zm143,.72c1.71-3.52,8-6.24,7.83-9.25-2.27,2.95-8.18,6-7.83,9.26Zm39.83-7.82c1.26-.4,3-.37,3.55-1.43-1.32-.09-5.17.85-3.55,1.42Zm-185.64.7c1.34-.32,4.28,1,3.56-1.43-1.78-.11-3.46-.13-3.56,1.42Zm69.69,0h1.42v-1.43h-1.42v1.42Zm16.36,3.55c.58-.76,2.28-5.86.72-4.27.54,1.83-2.78,3.29-.72,4.27Zm-32-2.84h1.42v-1.42h-1.42v1.42Zm-106.69,1.42c2.4-.45,5.19-.5,6.41-2.13-2.57.28-6-.27-6.41,2.13Zm143,3.55c-.22-2.15.79-5.53-1.42-5.69.06,2.33.36,4.39,1.42,5.69Zm-118.77-2.13c.11-.5-.25-4.14-.71-2.13-.63,2.72.37,3.57.71,2.13Zm34.13,2.13c-.08-1.18.39-6.44-.71-4.26.1,1.19-.37,6.46.72,4.26Zm135.14,11.4c4-5.28,11.07-11.22,12.81-16.37-4.42,4.82-11.94,10.34-12.81,16.37Zm4.27-2.86c4-2.37,6.71-6.1,9.25-10-4.65,1.76-5.89,6.9-9.26,10Zm217-12.09v1.42c.89,2.63,4.29-1.72,2.14-2.13-.13.83-1.14.78-2.14.72Zm24.91,4.27c-4.85-1.83-9.68-5-16.37-5-.28,1.37-3.25.06-2.13,2.85,9.59.6,18.52,1.87,25.61,5-1-3.05-4.59-1.91-7.11-2.86Zm-434.63-2.85a2,2,0,0,0,2.13-1.42c-1.11.07-2.47-.1-2.13,1.41Zm55.49,2.13c.09-.93.11-5.14-.71-2.84-.1.94-.12,5.16.71,2.85ZM762,483.19a2,2,0,0,0,2.14-1.42,2,2,0,0,0-2.14,1.42Zm24.19,1.43c1.57.53,2.93-2.62,1.42-2.84-.36,1.06-1,1.79-1.42,2.85Zm56.2,12.79c7.13-2.36,8.45-10.52,14.23-14.22.15-.9,1.11-1.46-.71-1.42-5.9,3.81-9.92,9.52-13.51,15.64Zm-184.94-13.5h1.43v-1.43h-1.43v1.42Zm22,5.68c-.23-1.71.61-8.13-.71-6.4.23,1.72-.61,8.14.72,6.4Zm7.82,1.44c-.2-3.18,4.92-6.56,1.43-8.54-.66,2.19-2.5,7-1.42,8.54ZM799,497.41c-1.14-3.12-1.11-7.43-2.85-10-.15,2.71.92,9.85,2.85,12.8,3-2.4,2.05-6.9,1.42-10.67-.25-1.49-1.75-6.38-2.85-6.4-.73,5.5,2.89,10.39,1.44,14.22ZM676,488.89c-.82-1.55-.14-4.6-2.13-5,0,2.35-.29,5,2.13,5Zm10.67,5c-.11-.83-1.12-.77-2.13-.71-.39-1,.83-3.68-.71-3.56-.16,2.61-1,2.73,0,5,6.37,1.39,12.24,1.64,15.65-2.84-2.6-.88-3.81,3.23-5,1.42.12-1.14,2.39-3.66.71-4.27-1,1.85-.88,4.82-4.27,4.27.89-2.79.54-2.2-.71-2.84.34-1.84,2.87-5.14,1.42-6.41-2.23,2.74-1.4,8.54-5,10Zm180.67-5c-3.42,3.69-8.29,5.93-9.95,11.38,5.86.68,11.21-8.54,12.8-12.09-4.28,2.84-7.41,10.6-11.38,11.38,2.3-2.83,8.54-10.16,8.52-10.65Zm1.44-5c-5,3.08-13,8.95-12.09,14.93,3.25-5.76,8.92-9.1,12.09-14.94Zm-202,28.45c-6.67-4.1-10.25-10.24-12.8-17.79-1-3.07-1.11-7.85-4.27-9.95V491c1,1.72,1.42.44,2.13,1.42-1.78.4-1,3.49,0,5,.39-1-.83-3.68.72-3.56.77,7.05,1.82,13.82,5,18.5-1.93-.45-1.78-3-4.27-2.85,2.22,6.08,9.09,11.29,10.67,15.65-3.63-4.43-7.7-8.43-10.67-13.51-3.8.94-4.14,5.34-9.25,5,3.45,4.85,8.58,8,13.51,11.39-.89-4.34-8.25-6-7.82-9.25,5.13,3.64,9.89,11.44,15.65,12.09-4.45-4.09-8.87-8.21-13.52-12.09,3.48,1,5.18,3.83,7.83,5.69-1.7-4.47-6.46-5.88-7.83-10.67,1.91,2.79,13.4,11.94,7.83,11.38,4.2,1,4.63,5.8,8.53,7.11,2.41-.82,1.12-1.41,4.27-.71-2.46-8-12.8-11.85-14.22-18.49,3.25,1.73,5.72,8,8.53,7.82-2.86-3.77-6.44-6.83-8.53-11.38,1.64,1.41.79-.18,2.13-.71,4.7,3.83,7,10.05,12.09,13.52-.07-5.07-4.55-5.8-5.68-9.88Zm-14.94,12.81c-3.54-2.79-7.13-6.42-10.67-7.12,5.68,5.23,12,9.77,17.78,14.94-8.15-3.93-12.5-11.68-21.34-14.94,3.08,6.41,13.19,9.57,14.94,14.94-6.56-4.82-11.1-11.66-19.92-14.22.46,2.62,2.44,3.73,5,4.26,4.65,4.74,9.12,10,15.65,12.1,1.18,0,.4-2,1.42-2.14.07,2.14,6.34,2.14,6.41,0-2.37-2.85-5.92-5.21-9.24-7.82Zm7.12,3.55c-.86.9,2.18,3.94,4.27,4.27a5.39,5.39,0,0,0-4.27-4.27Zm18.5.72c-2.73-.36-2.67-3.5-5-4.27,1.16,3.53-.09.4-1.43,2.13,1,.19.82,1.56,1.43,2.14,2.34-2.1,3.55,1.77,5,0ZM671,523.75a67,67,0,0,0-10-12.09c2.74,4.59,5.61,9.07,10,12.09Zm3.55-4.27c-.17-1.77-2.89-4.63-4.26-2.84,2.21.17,1.2,3.53,4.26,2.85ZM660.32,501c-.89-2.92-1.06-6.54-3.56-7.83-.29,1.21-.92-.15-2.13,0,1.93,7.95,6.4,12.93,11.38,17.07,5.28,4.39,12.28,9.81,19.91,8.54-12.26-2.21-18.95-10-25.6-17.8Zm13.51,11.37c-3-3.84-6.81-6.94-10-10.67,2,4.86,5.61,8.16,10,10.67Zm0-3.55a10.83,10.83,0,0,0,0,2.13C675.92,513,676.39,506.24,673.83,508.81Zm86.07-22.05H762c-.11-.84.13-2-.71-2.13-.15,1-1.17,1.19-1.41,2.13Zm310.84,0c1.32-.1,2.38-.47,2.84-1.42-1-1.14-3.17-.82-2.85,1.41ZM647.51,499.55c-.9-4.79-.66-10.73-2.85-14.23.55,5.18,1.08,10.32,2.86,14.23Zm22.06-14.23c-.6-.6-2,.52-2.13.71-.68,1.25,2.63-.22,2.13-.71Zm382,1.44a2,2,0,0,0,2.14-1.42c-1.12.05-2.48-.12-2.14,1.41Zm23.47,0c2.59-1.81,5.65,1.26,7.11-1.42-2.15.66-7.2-1.53-7.1,1.41Zm-411.14,1.42c.22-2.82,2.47.79,2.13-2.14-1.23-.17-4.21,1.34-2.13,2.14Zm253.23-.72c-1.16-.78-4.89-2.64-6.4-.71,2.08-.12,5,2.51,6.41.72Zm12.1,1.43c.4-2.58-5.43-2.58-5.7-2.13,1.1,1.49,2.63,2.57,5.69,2.14Zm102.43-.71c1.06,1.06,3.68.06,3.56-2.14-1.66.25-3.06.74-3.55,2.14Zm-189.21,1.41c-4.3,1.39-6.94,4.45-10,7.12-.15-.56,0-1.41-.71-1.43-2.66,4.45-8.54,5.68-10.67,10.67,5.8-.84,7.33-5.95,11.38-8.53-.61,1.79-4.52,4-2.84,5.69,1.52-1.56,2.21-4,4.27-5-.63,1.5-2.17,2.1-2.14,4.26,5.65-2.17,7-8.69,10.7-12.79Zm-23.48,13.53c-1.85,1.78-6.62,3.62-5,6.4,5.55-4.41,13.71-10,16.36-14.94a53.47,53.47,0,0,0-11.38,8.54Zm-24.18,19.19c8-3.12,11.49-10.79,18.49-14.93-.28-1.23,1.06-1.83,0-2.14a90.83,90.83,0,0,0-18.5,17.08Zm41.26-22c6.05-2.49,8.16-8.91,12.09-13.52-5.44,3.1-8.52,8.56-12.09,13.51Zm239.71,5c-7.7.81-15.26,1.23-23.48,2.85-8.43,1.66-16.55,1.22-24.89,2.13-21,2.31-49.68.87-66.87-2.84-11.1-2.4-18.34-4.61-26.32-8.54-9.1-4.47-18-11.56-29.87-12.09-3.6-.16-13.11,4.48-15.65,7.83-6.95,9.16-2.54,22.33,2.13,29.16,3.5,5.1,7.65,9.38,12.81,14.23,10.79,10.16,18.1,14.31,32,19.91,23.25,9.36,62.63,11.46,91.05,7.12,11.52-1.77,21.82-3.12,31.3-5.69,8.3-2.26,16.88-4.63,23.47-7.12a151.24,151.24,0,0,0,27.74-13.51c4.28-5,13.82-10.14,13.52-18.49-.18-5-3.35-5.84-5-10.67-14-7.22-26.83-5.86-42-4.27ZM668.14,488.89h1.42v-1.42h-1.42v1.42Zm162.17,4.25c3.53-1.69,7.51-2.92,10-5.69-3.57,1.65-7.95,2.48-10,5.69Zm235.46-2.83c1.93,2.11,8.75-.68,10.67,1.42-.84,6.65-11.65-1.07-13.52,4.27,4.5,1,11-3,13.52.71-9.58.45-18.3-.06-22.76,2.85a5.06,5.06,0,0,0-1.43-2.14c-2,.63-1.68,3.53-4.27,3.56.23-1,1-1.36.72-2.85-3.89-.79-4,2.18-6.41,2.85-.06-1.12.1-2.47-1.42-2.13-2.24,1.07-2,4.66-5,5,.29-1.2,3.35-3.2,1.42-4.27a39.45,39.45,0,0,0-3.55,6.4c15.47-.88,29.85-2.87,44.81-4.27,1.43-2.13,4.12-3,6.4-4.26,1,.43.11,2.73,1.43,2.84,2.47-2.52,8.58.56,11.38-2.13-.8,1-.77,1.73.71,2.13,1-1.61,5.94-2,4.27,0,1.79-1.52,7.2.57,7.82-2.13-4.27-1.42-9.58-1.81-12.8-4.27,3.58-.34,8.46,2.22,12.8,3.56,2.39.73,5.35,3.08,6.4.71a130.44,130.44,0,0,0-22-7.83v-2.84c-7.89,1.87-18.31-1.14-23.47,2.13a3.31,3.31,0,0,1,.71-2.13c-2.17.9-5.48.68-6.4,2.83Zm-405.45,1.42c-.66-1.24,0-3.82-2.14-3.56-.13,2-.09,3.88,2.14,3.55Zm143,4.27c-.52-2.81-.89-5.76-2.14-7.83.08,3.23,0,6.63,2.14,7.82ZM1021,489.59a2,2,0,0,0,2.13-1.42,2,2,0,0,0-2.13,1.42Zm23.46,2.14h2.13c-1-2,2.21-3.88-.71-3.56,1,2.68-1.94,1.36-1.41,3.55Zm4.27,0c2.8.43,3.15-1.59,3.56-3.56-2.8-.43-3.14,1.59-3.55,3.55Zm5,0c.72-.94.7-2.62,1.42-3.56-1.77.21-3.93,3.16-1.42,3.55Zm2.13-.7c2.23.33,2-1.79,2.85-2.85h-2.13a4.21,4.21,0,0,1-.72,2.86Zm3.56,0c1.57.53,2.93-2.62,1.42-2.85,0,1.42-1.93.91-1.42,2.86Zm-394.78,0c0-.43.1-.84.71-.71-.08-.87-.21-1.69-1.42-1.42.09.83-.14,2,.7,2.13ZM661,491h1.43v-1.42H661V491Zm8.54,2.11c2.78.51.59-3,0-3.55,0,.94-1.24.65-1.42,1.42,1.12.72,2.85.68,1.42,2.14Zm199.87,2.16c.45-2.43,5.72-3.73,4.27-5.69-1.48,1.15-5.84,6.1-4.27,5.68ZM994.64,501c-1.33,1.27-.85,4.36-2.85,5-.08-3.18,1.76-4.41,2.14-7.12-3.36-.28-1.54,4.63-4.27,5-.31-2.64,3.69-5.42.71-6.4-.18,4.09-3,5.54-3.56,9.25,7.6,0,14,1.21,22.06.71-.61-3,1.38-3.36,1.42-5.69-2.78-.84-2.82,4.71-4.27,2.84.57-2,1.44-3.77,2.13-5.69-3.38.42-2.25,5.33-5.69,5.69.2-1.3,2.56-4,.71-5-1.3,1.79-1.48,4.69-3.55,5.69-.65-2.59,3.09-4.43.71-6.4-1.17,2.16-1.7,4.94-3.56,6.4-.49-2.9,3.22-5.27,1.42-7.11-1.62,2.17-2.37,5.21-4.26,7.11-.57-1.81,2.77-3.25.69-4.25Zm-49.8-6.41c-7.34.69-9.88-7.18-17.07-4.27,15.09,9.56,33.82,15.49,58.32,15.65.88-2,2.08-3.61,2.14-6.4-2.28-.62-1.47,1.84-2.85,2.13-.11-.83.12-2-.71-2.13-1.12.54-1.06,2.25-2.84,2.13,0-.91.91-1,.71-2.13-2.58-.69-.6,3.2-2.85,2.84-.12-1.06.26-2.62-.71-2.84a3.61,3.61,0,0,1-2.13,2.13c.2-.43,1.77-2.74,0-2.84-.49,2.22-2.17,1.19-2.85,0-1.11,1-.56,3.71-2.84,3.56.3-1.36,1.53-1.79,1.42-3.56-4.69,1.73-7.15-.55-11.38,1.42.3-1.35,1.53-1.79,1.42-3.55-2.52-.16-1.4,3.33-4.27,2.84-.27-2.64,2.88-1.86,2.14-5-2.85,0-2.36,3.34-4.27,4.27-3,.35-3.91-1.3-5.69-2.13,0-1,3-2.26,0-2.14-1.75,1.07-1.55,3-2.14,3.56-1.4-.91-3.53-1.13-3.49-3.55Zm22.07.72c-1.66.48-3,1.28-2.85,3.55,2.23.1,2.44-1.83,2.85-3.55Zm-17.8-1.44a2.68,2.68,0,0,0-2.85,2.85,3.34,3.34,0,0,0,2.86-2.85Zm82.52-2.13c.08-1.35,2.35-.5,2.14-2.14-1.82-.75-4.07,1.52-2.14,2.14Zm-236.87,8.54c-1-1.57.08-5.3-2.14-5.69-.49,2.89,2.18,6.31.71,7.82-1.76-1.08.15-5.84-2.84-5.69-.28,2.69,2.38,6.11.71,7.83-1-.92-.7-3.09-.71-5-4.55.85-.84,7.84-.71,10.67,6.33-2.52,9.34-12.75,5-19.92-2.44,2.78,2,7.73,0,10Zm165.74-8.54c1.12-.07,2.47.09,2.13-1.42h-1.42c0,.71-.58.85-.72,1.41Zm-295.91,1.41H666c1.11-1.74-2.42-2.09-2.13-.71.43.06.85.12.71.72Zm406.15,0c9.09-.6-5.73-2.35-6.4,0,2.41-.05,4.87.12,6.4,0Zm51.93,0c2.38.48,3.48,2.22,5.7,2.85,1.36-4-4.59-5.72-5.69-2.85ZM1043,494.58h1.43c0-.91.91-1,.71-2.13h-1.43c0,.9-.9,1-.71,2.13Zm4.27,0c1.86.2,3.06-.26,2.85-2.13-1.87-.21-3.06.26-2.85,2.13Zm-387.67.72c2.08,1,2.08-3.18,0-2.14Zm369.9,0c1.62.2,2.67-.17,2.84-1.42-1.08-1.14-3.19-.82-2.85,1.41ZM778.4,506c4.6-2,8.73-8.32,9.24-12.09-2.6,4.52-7,7.24-9.25,12.09Zm356.37-10.65C1133.5,492,1131.42,496,1134.77,495.3ZM665.3,496h1.43v-1.43H665.3V496Zm-1.43,1.41c0-.43.1-.84.71-.71-.08-.86-.21-1.68-1.42-1.42.09.85-.14,2,.7,2.14Zm155.79,2.86c.73-1.22,4.89-2.64,2.84-4.27.08,2-5.19,2.34-2.85,4.27Zm308.7,5.68c3.84-.43,2.66-5.87,3.56-9.24a3.42,3.42,0,0,1-2.14-.71,58.83,58.83,0,0,1-1.41,10Zm1.44,4.27c3.09-2.37,6.38-11.29,4.26-14.22a57.33,57.33,0,0,1-4.27,14.22Zm-5.71-8.54c1.68,0,2.1-1.22,4.27-.71.51-2.17-.73-2.59-.71-4.27-1.93.44-5.65-.9-6.4.71,5.11,1.52-1.71.62,0,1.43a6.49,6.49,0,0,1,2.85,2.85Zm-96.73-2.83c1.62.2,2.67-.17,2.85-1.42-1.27.15-3.57-.74-2.86,1.41Zm-357.09.7a2,2,0,0,0,2.14-1.42,2,2,0,0,0-2.14,1.42Zm342.87.72h1.42c0-.91.91-1,.71-2.14h-1.42c-.06.91-.93,1-.72,2.14Zm4.26,0c.07-1.12,1.82-.56,1.43-2.14-1.48-.62-3.2,1.86-1.42,2.14Zm-8.53.72c1.78.12,2.22-1.1,2.84-2.14-1.79-.13-2.23,1.1-2.85,2.14Zm-346.42,0h1.42v-1.43h-1.42V501Zm360.64,5c4.38.35,4.68-3.38,5.69-6.4-4.23-.21-4.55,3.53-5.68,6.41Zm5.69,0c.78-1.62,3.51-5,2.13-6.4-.7,1.72-4.06,4.44-2.13,6.41Zm2.13,0c3-.53,3.18-3.94,4.27-6.4-2.74.83-3.83,3.29-4.27,6.41Zm-14.22,1.44c2.23-.88,5-4.9,3.55-7.11-2,2.91-2.28,4.68-3.55,7.1Zm4.27-2.14c1.88-.06,3.69-3.82,2.13-5a10.13,10.13,0,0,0-2.14,5Zm-158.63,1.42c4.54.51,4.85-3.21,6.41-5.69-4,.06-4.52,3.55-6.41,5.69Zm147.23.72h5.69c.11-2.75,2.41-3.29,2.14-6.4-3.86-.3-2.62,4.49-5,5.69-.67-2.38,2.55-4.49.71-5.69-1.32,2-3.15,3.45-3.55,6.4Zm-330.75-4.27h1.43V501.7h-1.43v1.41Zm7.82.7c.11-.84,1.27-1.61,0-2.13-.09.85-1.26,1.62,0,2.13Zm5.69,0h1.42c.44,0,.85-.11.72-.71-1-.17-1.2-1.17-2.14-1.42v2.13Zm435.32.72c-.68-1.33,2.13-2.38,0-2.85-.19.44-1.75,2.74,0,2.85Zm-339.29,8.54c.63-2.12.33-8.65-2.13-10,.54,3.47.58,7.48,2.13,10Zm-113.09-6.41c.27-2.16-2.58-1.21-2.84-2.84a2.68,2.68,0,0,0,2.85,2.85Zm192.76.72a17.46,17.46,0,0,1,2.85-2.85h-2.14c.19,1.31-2.28,4.56-.71,2.86Zm-198.45-.72H671v-1.42h-1.43v1.42Zm115.23,9.24c-1.18-2.37-.11-7-2.14-8.54-1,4.13,2,7.94,0,10.67-1.4-2.39,0-7.53-2.84-8.53.65,3.85,1,8,1.42,12.09,3.22-1.06,3.37-5.17,6.4-6.4-1.92-2.35-1-7.58-2.84-10-1,4.14,2,8,0,10.67Zm79.67-5.69c-1.66,2.16,3.34-3.25,1.42-3.55-.3,1.36-1.53,1.77-1.41,3.55Zm165.72-3.55c-3.33.46-8.51-.93-10.66.71,3.34-.47,8.52.93,10.67-.72Zm-358.5,2.14h1.42v-1.43h-1.42v1.42Zm6.4-.72c-.24-.58-1.88-.86-2.13,0-.45,1.64,2.8,1.55,2.14,0Zm138.71,1.42c2.54.15,4.27-.48,5-2.14-2.53-.15-4.27.49-5,2.14Zm-138.71.71c1.07,1.13,4.06,1,3.56-1.42-1.25.4-2.95.36-3.55,1.42Zm124.49,0c.4,3.23,4.07-4.07.71-.71-.34.34-.81-.13-.72.72Zm7.12,3.56c.48-1,4.35-2.2,2.13-3.56-.41,1.07-4.76,1.79-2.13,3.55Zm56.9,3.57c2-.37,2.73-5.76,1.43-7.12.2,3-2.18,3.52-1.42,7.13Zm-79,12.79c3.55-.49,4.71-3.36,6.41-5.69-3.92.13-4.37,3.7-6.41,5.68Zm14.93-19.2c-8.91,6-15.06,14.82-21.34,23.48A167,167,0,0,0,802.59,511Zm-24.9,14.93c-1-3.73-.75-8.74-1.43-12.81-1.61.52-3.63.64-5,1.43,1.33,7-.39,17,2.85,22,1.47-7.17-2-15,0-22,.87,5.76,1,12.31,2.13,17.78a31.79,31.79,0,0,1,5-8.54c-1.58-3.39-.41-9.54-3.55-11.38-1,5.08,2,9.83,0,13.53Zm-10.66-5c-.29-1.73-.19-4.9-2.13-5-1.88,3.2.56,10.35,1.42,16.36.38,2.69-.52,5.45,1.42,7.11,1.53-4.59-.09-15-.7-18.49Zm2.14,7.82c.42,3.41-1.23,8.11,2.13,9.25,1.44-3.69-.41-7.76-.71-12.1-.26-3.77,1.46-8.7-1.42-11.38-.16.56-.6.83-1.43.71-.7,3,.8,8.6,1.42,13.51Zm101.71-7.12c2.53-3-1.89-4.53,0-7.12-4.28.31-1,5.63,0,7.11Zm-113.11-4.25c.37,6.14,2.06,13.4,2.85,17.78.27,1.49-1.3,4.88,1.42,5,1-6.54-3.2-16.25-1.42-22.05,2.61,5.76.52,18.64,4.27,21.34,1.87-7.33-2.46-14.61-2.14-22.76-2.24-.34-2.51,1.28-5,.71Zm123.07.7H883c.09-1.28-.71-1.67-2.14-1.43V518Zm-202,1.43c-1-.37-1.79-1.05-2.84-1.42-.12,2,2.42,3.91,2.85,1.42Zm77.54,12.79c.44,2.69-.92,8,2.84,7.83-.11-5.36-2.14-14.93-2.84-22.05h-2.14C754.36,523.18,755.78,528.78,756.35,532.27ZM750.66,528c.62,4,2.13,12,5.69,12.8-.77-4.69-2-9.41-2.84-14.22-.48-2.65.63-6.6-2.14-7.83-2.17,1.55-1.19,6.12-.7,9.24Zm130.17-7.82c1.26-.16,3.56.72,2.85-1.42-1.65-.21-2.69.17-2.86,1.41Zm-140.13.72c-1.42,3.85-.8,16.54,5,17.78-2.38-5.21-2.62-12.56-5-17.78Zm-4.27,1.41c.12,2,.1,8.65,1.43,12.1.6,1.56,1.07,3.87,3.55,2.84-2.34-4.34-.68-14.22-5-14.94Zm-2.85,0c-.65,1.25-2.22,1.57-4.27,1.43,1.1,4.36,0,11,4.27,12.09.74-4.55-3.75-7.6-1.42-11.38,2.47,3.46-.07,11.92,5.69,12.09-1.66-4.49-1.46-10.88-4.27-14.22Zm14.95,17.08c-.15-4.59-4.22-9.57-1.43-12.8,1.78,4.63-.45,13.26,5.69,13.51-1.76-6.53-3.7-12.88-4.26-20.62-5-.47-.92,4.67-2.85,6.4-1.23-1.37.64-5.85-2.84-5,.41,4.84,1.32,15.3,5.7,18.51Zm-75.4-17.08c-.19,2.32.84,3.43,2.84,3.56.17-2.3-.85-3.42-2.85-3.55Zm4.27,1.44c.18-2.32-.85-3.42-2.85-3.56.4,1.72.6,3.65,2.85,3.56Zm4.27-2.15c.8,1.87,2.75-1,3.55-1.43h-3.55v1.42Zm2.83,2.15c-.22-1.64,2-.79,2.13-2.13-1.79-.76-4.06,1.49-2.13,2.13ZM782,525.87c.51-.59,2.23-4.6.71-2.85-.51.61-2.23,4.61-.72,2.85Zm-101.72-1.42h1.42V523h-1.42v1.41Zm49.8,10c-1.32-3.9-.3-10.14-4.27-11.38,1.27,3.94-.43,10.86,4.27,11.37Zm151.52-9.24c1.77,1.56,4.67-.06,5-2.14-2.14.25-4.35.42-5,2.14Zm-199.19,1.41c2.08,1,2.08-3.18,0-2.13Zm-3.55,0h1.43v-1.42h-1.43v1.42Zm44.82,5.69c-1.66-1.9-.22-6.89-3.56-7.11.81,2.76.43,6.69,3.55,7.12Zm2.85,1.44c-.06-3.27-1.81-4.84-1.42-8.54h-2.14c.57,3.46.59,7.46,3.55,8.54Zm157.18-5c1.72,1.19,5.77,0,5-3.56-2,.78-4.81.87-5,3.55Zm-204.13.72a6.34,6.34,0,0,0-2.85-2.85c-.75,2.25,3.08,3.48,2.86,2.85Zm37.69,1.41c-.36-1.77,0-4.29-2.13-4.26.36,1.77,0,4.28,2.13,4.27Zm3.55,0c-1.88-.72,0-5.16-3.55-4.26.17,2,1.49,6.51,3.55,4.27ZM713,529.44c2.08,1,2.08-3.18,0-2.14v2.14Zm173.57,2.13c2.31-.05,3.83-.91,4.27-2.84-2.25.13-4.25.51-4.27,2.85ZM784.8,533c1.78.12,2.23-1.09,2.84-2.13-1.79-.12-2.22,1.09-2.85,2.13Zm103.85.72a5,5,0,0,0,4.27-2.85c-1.76.63-4.1.64-4.27,2.85Zm5.69,7.1c2.55.18,2.61-2.13,5-2.13-.48,1.65-2.36,1.9-2.85,3.55,2.88.28,3.28-1.94,5-2.84-2.17-3.29-6-3-7.12,1.43Zm2.85-4.27c-.14-2.23-1.83-2.91-2.84-4.27-2.15.94-4.39,1.78-5,4.27,2.52.8,4-3,5.69-.71a2.68,2.68,0,0,0-2.85,2.85c2.78.37,2.95-1.82,5-2.14Zm4.27,9.26c-.09-1.58,4.62-1.93,2.13-3.56.08,1.57-4.62,1.91-2.13,3.55Zm1.42-5a5,5,0,0,0-4.27,2.85h2.85c-.53-1.95,1.39-1.44,1.41-2.86Zm0,7.12c2.36-.25,3.08-2.13,4.27-3.55-2.69-.1-3.84,1.38-4.27,3.55Zm3.55,3.55c.72-2.36,3.94-2.22,3.56-5.69-4.12-1.34-6,4.94-3.56,5.69Zm2.13,2.14c2.3-1,4.06-2.58,4.27-5.69-3.47-.34-5.32,3.74-4.27,5.69Zm37,10c-11.08-3.41-23.71-7.53-29.88-13.52h-2.13c-1,1.11-1.5,2.77-2.14,4.27,2.36.64,3.09-4,4.27-2.14-.4,1.48-2,2.3-.71,3.56,2.35,1.34,3.73,1.52,5.69,0-.76,5.6,8.91,6.67,12.09,10.67,2.66.76,2-1.77,4.27-1.42-2.08,3.7,5.37,1.58,5.69,5,2.32.82,4.38-2.18,5.69,0-.86.08-1.68.21-1.42,1.42,3.23,1.33,1-2.83,3.56-2.14.12,1.07-.26,2.63.71,2.85,2.9-1.21,7.65,1.82,12.8.71,2.32,3.28,7.38,4.66,12.1,5,12,.82,31.59-1.16,44.81-2.13,5-.38,11.86.69,14.94-2.85-7.37-1.05-21.91,2.09-29.88,1.42-11.53-1-24.64,1.89-34.85-1.42,14.11-.53,34.84,2.14,45.52-2.13-17.42,1.82-39.8.34-52.64,0-3.17-.09-8.19,1.29-10.66-1.43,4.66.36,11,1.46,16.36,0a203.45,203.45,0,0,1-24.2-5.72Zm126.61,2.83c9.49-1.19,21.34-3.8,24.9-8.54-7,4.12-17.17,5.14-24.9,8.54Zm17.78,0c.17-2,4-.26,3.56-2.85-2.4-.66-5.14,1.93-3.55,2.86Zm-29.87.72h1.43v-1.42h-1.43v1.41Zm-18.49,7.12c9.2-1.15,19.17-1.36,27-2.84,4-.76,8.45-2,10.67-4.27-14.3,2.13-26.38,3-37.71,7.12Zm-635.21-5c3.9-.77,6.12,1.08,7.83-1.42-2.91.17-6.86-.7-7.82,1.42Zm628.08,1.42c1.63.2,2.68-.17,2.85-1.42-1.62-.19-2.68.17-2.85,1.41Zm-16.36,1.44c2.93-.16,6.74.57,7.12-2.14-2.52,1.12-5.52-.87-7.11,2.14Zm8.54-.72c1.26-.16,3.57.71,2.85-1.42-1.63-.21-2.68.17-2.85,1.41Zm10.68,2.13c1.32-.1,2.38-.47,2.84-1.42-1.26.15-3.57-.72-2.85,1.42ZM962.64,575c1.14-2-3.08-2-2.85-.71,1,.23,1.36,1,2.85.72Zm-825.85.72c5-.47,11.84.94,15.64-.71-4.87,1-21.87-2.4-15.64.71Zm26.31,0c-.91,0-1-.92-2.13-.71,2,3,8.94,1,2.13.71Zm877.77,2.85c2.26-3.18,6.31-1.43,8.54-3.56-5.62.32-12.89-1-15.65,2.14,3.8-.4,7-.89,7.1,1.41Zm-9.24-2.13C1027.08,575.55,1030.06,578.56,1031.63,576.39ZM1085,594.88c-.44-2.66-8.37-1.55-10-.71,3.83,1.15,5.46.19,10,.72Zm0,1.42a4,4,0,0,1-2.84-.71c-1.14,2,3.06,2,2.85.72Zm5,.72c0-.4-.57-.81-.71,0,3.78,2,8.18-.7.72,0Zm7.13,3.55c-2.27-.14-4.32.1-6.41,0-2.8-1-6.93-3.25-9.25-.71,7.55,1.93,17.06,1.91,25.61,2.84-1.72-2-6.27-1.92-10-2.13Zm19.91,0C1114.59,598.4,1114.83,603.19,1117,600.57Zm-8.54,2.13C1116.69,603.82,1110,599.85,1108.45,602.7Z" style="fill-rule:evenodd"/><path d="M1006.73,207.91c2.37-4.75,7.23-7,10-11.38-.3,4-6.67,8-10,11.38Z" style="fill-rule:evenodd"/><path d="M1021,193.68c0,5.32-8.2,10-11.38,14.94-2.19-1.11,1.23-2.47,2.13-2.84,1.63-5.48,7.26-7,9.24-12.1Z" style="fill-rule:evenodd"/><path d="M962.64,329.55c-1.12,4.21-1.52,4.73-4.27,7.11,1.34-2.45,1.72-5.86,4.27-7.11Z" style="fill-rule:evenodd"/><path d="M909.28,451.18c1.6-2.66,7.47,3,5.69,1.42-2.55.19-3.42-1.3-5.68-1.42Z" style="fill-rule:evenodd"/><path d="M668.14,475.36c-2,2.59-6.78.89-8.54,2.13-.81-1.55,5.69-1.89,8.54-2.13Z" style="fill-rule:evenodd"/><path d="M617.64,524.44c5.2,1.69,12.57,7.35,17.07,12.1-6.14-3.57-11.58-7.86-17.08-12.09Z" style="fill-rule:evenodd"/><path d="M285.45,560.72c-3.44,4.85-16.39.2-22.05,2.84,39.35,1.13,79.58-4.75,116-9.25,6.1-.75,12.63.64,18.49-2.13,3.77,2.56,14.23-.25,17.07-.71-2.39,2.93-8.79,2.14-14.94,2.84-18.07,2.06-36.75,5.46-56.9,6.41-3.67,3.66-11.28,2.62-16.36,1.42,6.2,2.41-12.17,2.29-16.37,1.42-3.29-.61-.74,1.12-2.13,1.43-3.11.51.57-1.42-1.42-1.43-20.54,1.87-38.47,1.69-54.06,2.14-5,.14-7.63-.52-11.38-.71-4.26-.22-8.35,1.61-13.52,2.13-14.8,1.49-30.11.8-46.94,2.13,1.51-3,8.06-3.21,12.8-3.55,7.69-.56,16,.2,23.47,0,7.75-.22,15.27-1.9,22.76-2.14,2.18-.07,3.9,1.39,5,1.43.87,0,2.85-1.23,4.27-1.43,11.28-1.51,23.86-2.08,36.26-2.83Z" style="fill-rule:evenodd"/><path d="M97.67,558.58a124.15,124.15,0,0,1-24.19,4.27,103.33,103.33,0,0,1,24.19-4.27Z" style="fill-rule:evenodd"/><path d="M365.12,560.72c1.77.82,9.95-3.56,12.09-1.42-1-1-5.08,1.36-5.69,1.42-2.1.21-3.23-.13-6.4,0Z" style="fill-rule:evenodd"/><path d="M375.08,561.44c-4.19,3.4-14.05,1.12-19.92,2.84H353c-.81-.14-.4-.71,0-.71,7.44-.6,14.13-2,22-2.13Z" style="fill-rule:evenodd"/></svg>